<?xml version="1.0" standalone="no"?>
<!DOCTYPE svg PUBLIC "-//W3C//DTD SVG 1.1//EN" "http://www.w3.org/Graphics/SVG/1.1/DTD/svg11.dtd" >
<svg xmlns="http://www.w3.org/2000/svg" xmlns:xlink="http://www.w3.org/1999/xlink" version="1.1">
<metadata>
Created by FontForge 20170805 at Thu Nov 16 13:09:49 2017
 By nphyx
4.1 (c)1986-92 by Richard A. Ware. All Rights Reserved.
</metadata>
<defs>
<font id="RightBankFLF" horiz-adv-x="471" >
  <font-face 
    font-family="RightBankFLF"
    font-weight="500"
    font-stretch="normal"
    units-per-em="1024"
    panose-1="2 0 6 3 4 0 0 2 0 4"
    ascent="819"
    descent="-205"
    x-height="538"
    cap-height="688"
    bbox="-77 -246 1186 867"
    underline-thickness="20.48"
    underline-position="-180.224"
    unicode-range="U+0005-E00A"
  />
<missing-glyph horiz-adv-x="512" 
 />
    <glyph glyph-name=".notdef" horiz-adv-x="512" 
 />
    <glyph glyph-name="breve" horiz-adv-x="337" 
d="M86 670q17 -25 41 -37t49 -12t49.5 12t40.5 37q6 9 14.5 11t14.5 -1t8.5 -11t-3.5 -18q-19 -33 -52.5 -48.5t-70.5 -15.5q-39 0 -73 15.5t-52 48.5q-5 9 -3 16.5t8 11.5t14.5 2t14.5 -11z" />
    <glyph glyph-name="dotaccent" horiz-adv-x="209" 
d="M171 634q0 -27 -17.5 -45t-44.5 -18t-45 18t-18 45q0 26 18 44t45 18q26 0 44 -17.5t18 -44.5z" />
    <glyph glyph-name="ring" horiz-adv-x="256" 
d="M212 664q0 -35 -24 -59t-59 -24t-59 24t-24 59q0 34 24 58t59 24t59 -23.5t24 -58.5zM66 664q0 27 18 45t45 18t45.5 -18.5t18.5 -44.5q0 -27 -18.5 -45.5t-45.5 -18.5t-45 18.5t-18 45.5z" />
    <glyph glyph-name="hungarumlaut" unicode="&#xa;" horiz-adv-x="256" 
d="M148 725l-49 21l-60 -164l19 -8zM245 725l-49 21l-61 -164l20 -8z" />
    <glyph glyph-name="ogonek" horiz-adv-x="229" 
d="M92 -80q0 12 5 24.5t12 22.5t13.5 19t10.5 14h-18q-24 -19 -41.5 -40.5t-17.5 -51.5q0 -27 17.5 -46t53.5 -19q20 0 34 5t27 11l-7 24q-12 -4 -23.5 -6.5t-20.5 -2.5q-24 0 -34.5 13t-10.5 33z" />
    <glyph glyph-name="caron" horiz-adv-x="384" 
d="M36 696l123 -99h17l-121 99h-19zM351 696h-125l-62 -62l43 -37h46z" />
    <glyph glyph-name="dotlessi" unicode="&#xd;" horiz-adv-x="131" 
d="M37 0h58v538h-58v-538z" />
    <glyph glyph-name="fraction" horiz-adv-x="512" 
d="M489 705q4 5 5 12q0 15 -18 15q-9 0 -16 -11l-430 -718q-5 -8 -5 -14q0 -9 5.5 -14t12.5 -5q9 0 18 15z" />
    <glyph glyph-name="Lslash" horiz-adv-x="558" 
d="M287 374v-348h240v-26h-266v374h26zM220 391v-391h-179v222l-39 -39v32l39 39v434h179v-265l79 79v-32z" />
    <glyph glyph-name="lslash" horiz-adv-x="276" 
d="M39 252l-37 -37v-32l37 37v-220h216v23h-155v250l51 51v31l-51 -50v233h-61v-286z" />
    <glyph glyph-name="Zcaron" horiz-adv-x="599" 
d="M550 688h-513v-28h311l-311 -660h183zM476 374h-31l-174 -374h302v26h-256zM454 831h-18l-99 -99h17zM349 769l-62 62h-125l99 -99h51z" />
    <glyph glyph-name="zcaron" horiz-adv-x="371" 
d="M336 696h-18l-99 -99h18zM231 634l-62 62h-125l99 -99h52zM346 538h-310v-23h232l-246 -515h324v23h-245z" />
    <glyph glyph-name="space" unicode=" " horiz-adv-x="358" 
 />
    <glyph glyph-name="exclam" unicode="!" horiz-adv-x="380" 
d="M247 688h-179v-473h179v473zM288 215h25v473h-25v-473zM247 167h-179v-167h179v167zM288 0h25v167h-25v-167z" />
    <glyph glyph-name="quotedbl" unicode="&#x22;" horiz-adv-x="363" 
d="M138 709h-102l61 -134h41v134zM195 489v220h-26v-220h26zM226 575h41l62 134h-103v-134z" />
    <glyph glyph-name="numbersign" unicode="#" horiz-adv-x="762" 
d="M336 520l31 126h-103l-32 -126h-122l-7 -24h124l-28 -115h-123l-6 -25h123l-31 -127h102l32 127h140l-33 -131h103l32 131h126l6 25h-125l27 115h125l6 24h-125l31 126h-102l-31 -126h-140zM330 496h140l-29 -115h-139z" />
    <glyph glyph-name="dollar" unicode="$" horiz-adv-x="614" 
d="M498 329l-291 326q18 5 50.5 8.5t69.5 3.5q34 0 66.5 -6.5t61.5 -17t53 -27t40 -35.5l21 15q-33 41 -90 66.5t-124 28.5v63h-36v-62h-24q-10 0 -24 -1v63h-35v-67q-74 -10 -119.5 -36.5t-45.5 -65.5q0 -22 11.5 -42t29.5 -40l386 -440q28 24 45 48.5t17 68.5
q0 49 -16.5 83t-45.5 66zM33 103q34 -52 88.5 -81t114.5 -33v-62h35v59h19h13t16 1v-60h36v64q35 5 64.5 19t49.5 30l-263 299h-35l253 -294q-29 -15 -61 -24.5t-83 -9.5q-37 0 -72.5 9t-65 23.5t-52 34t-36.5 41.5z" />
    <glyph glyph-name="percent" unicode="%" horiz-adv-x="778" 
d="M666 691h-36l-512 -691h36zM200 375v163h-21v-181q5 -2 15.5 -3.5t23.5 -1.5q43 0 75.5 15.5t54.5 40t33 55.5t11 60q0 32 -12 63t-34 55t-54 38.5t-71 14.5t-70 -14.5t-53.5 -38.5t-35 -55t-12.5 -63q0 -54 29 -95.5t75 -60.5v288q9 5 23 12t44 7q33 0 60.5 -13
t47.5 -34t31.5 -48t11.5 -56q0 -28 -9.5 -55t-29 -48t-48 -34t-67.5 -13q-10 0 -18 2zM542 20v163h-21v-180q5 -2 15.5 -3.5t23.5 -1.5q43 0 75.5 15.5t54.5 40t33 55t11 60.5q0 32 -12 63t-34 54.5t-54 38.5t-71 15t-70 -15t-53.5 -38.5t-35 -54.5t-12.5 -63
q0 -54 29 -95.5t75 -61.5v289q9 5 23.5 11.5t43.5 6.5q33 0 60.5 -12.5t47.5 -33.5t31.5 -48t11.5 -56q0 -28 -9.5 -55t-29 -48t-48 -34.5t-67.5 -13.5q-10 0 -18 2z" />
    <glyph glyph-name="ampersand" unicode="&#x26;" horiz-adv-x="727" 
d="M348 758q-65 0 -103.5 -30t-38.5 -76q0 -36 21 -62t57 -35q-57 -6 -106 -27.5t-84.5 -56.5t-56 -82t-20.5 -104q0 -51 14 -95.5t39.5 -79.5t61.5 -58.5t79 -33.5v499q7 3 20 6.5t28 7t31.5 5.5t32.5 2h271v-263q0 -57 -19.5 -105t-55.5 -82.5t-87 -53.5t-114 -19
q-14 0 -22.5 2t-16.5 5v277h-27v-296q14 -5 31 -9t35 -4q72 0 128.5 23t95 61t58.5 87.5t20 101.5v275h87v25h-350q-25 0 -47.5 6t-40 17.5t-28 28t-10.5 37.5q0 39 34 60t83 21q29 0 52.5 -6.5t40.5 -18.5t26 -26t9 -30q0 -14 -4.5 -25.5t-12.5 -22.5l19 -15q26 27 26 64
q0 19 -11 38.5t-31 33.5t-48.5 23.5t-65.5 9.5z" />
    <glyph glyph-name="quotesingle" unicode="'" horiz-adv-x="276" 
d="M173 707h-107v-93h107v93zM229 522v185h-25v-185h25z" />
    <glyph glyph-name="parenleft" unicode="(" horiz-adv-x="241" 
d="M85 332q1 93 28.5 195.5t93.5 205.5h-47q-67 -103 -95 -201t-28 -200q0 -103 26 -213t97 -221h47q-36 55 -59.5 112t-37.5 112.5t-19.5 109t-5.5 100.5z" />
    <glyph glyph-name="parenright" unicode=")" horiz-adv-x="241" 
d="M84 733h-47q66 -103 93.5 -205.5t28.5 -195.5q0 -47 -6 -100.5t-19.5 -109t-37.5 -112.5t-59 -112h47q71 112 97 221t26 213q0 102 -28 200t-95 201z" />
    <glyph glyph-name="asterisk" unicode="*" horiz-adv-x="327" 
d="M74 690q-8 0 -12.5 -5t-4.5 -10q0 -9 9.5 -16.5t23.5 -14t31.5 -12t35.5 -10.5q-16 -5 -34 -10.5t-32.5 -12t-24 -14t-9.5 -18.5q0 -6 5 -10.5t12 -4.5q9 0 19.5 6t22.5 15.5t24 20t22 19.5q-3 -19 -8.5 -39t-5.5 -44q0 -14 5 -23t14 -9q10 0 14 9t4 23q0 24 -5 44t-8 39
q11 -10 23 -20.5t23.5 -19.5t22.5 -14.5t19 -5.5t12 5t4 10q0 8 -8 15.5t-22 14t-31.5 12t-37.5 12.5q18 5 36 11t32 12.5t22.5 14.5t8.5 16q0 15 -16 15q-8 0 -19.5 -6t-23 -15.5t-24 -20t-21.5 -19.5q3 19 8 39t5 44q0 14 -4.5 23t-13.5 9q-10 0 -14.5 -9t-4.5 -23
q0 -24 5.5 -44t8.5 -39q-22 20 -46.5 40t-41.5 20z" />
    <glyph glyph-name="plus" unicode="+" horiz-adv-x="604" 
d="M226 362h-153v-30h153v-169h172v359h-172v-160zM546 333v28h-118v-28h118z" />
    <glyph glyph-name="comma" unicode="," horiz-adv-x="276" 
d="M159 89h-108v-92h108v92zM225 -95v184h-25v-184h25z" />
    <glyph glyph-name="hyphen" unicode="-" horiz-adv-x="373" 
d="M266 373h-215v-62h215v62zM323 311v62h-26v-62h26z" />
    <glyph glyph-name="period" unicode="." horiz-adv-x="271" 
d="M159 89h-108v-92h108v92zM225 -3v92h-25v-92h25z" />
    <glyph glyph-name="slash" unicode="/" horiz-adv-x="317" 
d="M286 706q2 6 2 7v4q0 8 -6 12t-12 4q-14 0 -17 -12l-226 -723q-2 -5 -2 -13q0 -6 4 -11.5t11 -5.5q16 0 21 17z" />
    <glyph glyph-name="zero" unicode="0" horiz-adv-x="793" 
d="M334 22v351h-33v-371q27 -9 49.5 -12.5t52.5 -3.5q75 0 139.5 29.5t111.5 78.5t74.5 113.5t27.5 134.5q0 68 -26.5 132.5t-73.5 114t-112.5 79.5t-143.5 30q-83 0 -149.5 -31.5t-112.5 -82t-71 -114.5t-25 -128q0 -50 15 -99.5t43 -93.5t68.5 -78.5t91.5 -55.5v621
q22 13 55 24.5t85 11.5q59 0 118 -23.5t105 -67t74 -104.5t28 -135q0 -69 -26.5 -129t-71 -105t-103 -70.5t-121.5 -25.5q-20 0 -36.5 2.5t-32.5 7.5z" />
    <glyph glyph-name="one" unicode="1" horiz-adv-x="455" 
d="M210 688v-688h179v688h-179zM72 546l78 95v-95h25v142h-21l-113 -142h31z" />
    <glyph glyph-name="two" unicode="2" horiz-adv-x="565" 
d="M517 0v26h-206l147 321l-25 12l-167 -359h251zM56 571q13 18 34.5 36t47.5 30.5t56 20.5t63 8t58 -4.5t39 -9.5l-312 -652h183l274 603q-17 15 -40 31t-52 29t-66 20.5t-84 7.5q-37 0 -72 -9t-64.5 -23.5t-51.5 -33t-33 -37.5z" />
    <glyph glyph-name="three" unicode="3" horiz-adv-x="622" 
d="M332 688h-253v-25h207l-182 -290h31zM560 688h-179l-190 -315h108q58 0 106.5 -19t82.5 -55.5t53 -89.5t19 -122q0 -68 -22.5 -124t-63 -96.5t-95.5 -63.5t-121 -23q-47 0 -90 12.5t-78.5 38t-61 62t-37.5 84.5l-25 -7q12 -51 39 -91t65.5 -67.5t86 -42.5t101.5 -15
q72 0 132 24t103.5 67.5t68 105t24.5 136.5t-19 127.5t-49.5 88t-67 55.5t-73.5 28z" />
    <glyph glyph-name="four" unicode="4" horiz-adv-x="659" 
d="M487 373h156v25h-156v290h-179v-688h179v373zM267 0v398h-205l159 290h-27l-177 -315h225v-373h25z" />
    <glyph glyph-name="five" unicode="5" horiz-adv-x="667" 
d="M630 87q0 82 -29 140.5t-76 95.5t-108 54.5t-126 17.5v268h235v25h-261v-315q69 0 130.5 -16.5t108 -51.5t73.5 -89t27 -129q0 -71 -25.5 -127.5t-70 -96.5t-104 -61.5t-128.5 -21.5q-51 0 -98 12.5t-85.5 38t-66 62t-39.5 84.5l-25 -9q13 -52 43 -92t71.5 -67t92.5 -41
t107 -14q74 0 138.5 23t112 66.5t75.5 105t28 138.5zM45 373h179v315h-179v-315z" />
    <glyph glyph-name="six" unicode="6" horiz-adv-x="640" 
d="M397 299h-26v-276q-5 -2 -16 -4t-24 -2q-65 0 -115.5 20t-86 55.5t-54 83.5t-18.5 106q0 61 20 108t55.5 79.5t85 49t109.5 16.5q43 0 69.5 -9t41.5 -19v-491q37 15 69.5 41t55.5 59.5t36 73t13 85.5q0 59 -22.5 111t-62 90.5t-91 61t-109.5 22.5q-40 0 -89 -9t-95 -39
l133 200h-30l-118 -174q-13 -19 -30 -45.5t-32 -58.5t-25 -70t-10 -82q0 -63 20.5 -116.5t58.5 -92t94 -60t127 -21.5q19 0 37 3t29 6v298z" />
    <glyph glyph-name="seven" unicode="7" horiz-adv-x="604" 
d="M347 688h-297v-25h251l-123 -253h31zM567 688h-179l-343 -688h179z" />
    <glyph glyph-name="eight" unicode="8" horiz-adv-x="640" 
d="M318 15q-14 0 -23.5 2t-16.5 5v277h-26v-296q8 -4 27 -8.5t39 -4.5q80 0 137.5 26t94.5 68t55 94.5t18 105.5q0 52 -16 98.5t-46.5 83t-74 59.5t-98.5 29q39 14 60.5 40.5t21.5 61.5q0 26 -12.5 45t-32 31.5t-46.5 19t-55 6.5q-37 0 -65.5 -10t-47 -25.5t-28.5 -35.5
t-10 -41q0 -22 10 -39t25 -34l21 15q-14 14 -22 29t-8 29q0 36 31.5 61t93.5 25q50 0 85 -18t35 -58q0 -19 -7.5 -35t-20.5 -27t-29 -19t-35 -11q-19 -4 -43.5 -7t-47.5 -6q-61 -9 -106 -35t-75 -62t-44 -80t-14 -90q0 -45 12 -87t36 -77.5t59.5 -62.5t81.5 -42v502
q18 8 49.5 15t62.5 7q59 0 109 -16.5t87 -48.5t57.5 -80t20.5 -110q0 -58 -20 -107.5t-56.5 -85.5t-88.5 -56t-114 -20z" />
    <glyph glyph-name="nine" unicode="9" horiz-adv-x="640" 
d="M568 243q25 39 37.5 85t12.5 84q0 58 -20.5 108.5t-59 88t-92.5 59t-120 21.5q-59 0 -111.5 -22.5t-92 -61.5t-62 -90t-22.5 -109q0 -48 14 -89.5t37.5 -74.5t55 -57.5t67.5 -40.5v493q17 11 42.5 19t71.5 8q59 0 108.5 -20.5t84.5 -55t54.5 -80.5t19.5 -96
q0 -55 -19 -104t-54 -85t-85.5 -56.5t-112.5 -20.5q-14 0 -24 1t-18 3v278h-27v-298q14 -3 30.5 -6t38.5 -3q53 0 98 13.5t72 31.5l-175 -277h31z" />
    <glyph glyph-name="colon" unicode=":" horiz-adv-x="276" 
d="M159 89h-108v-92h108v92zM225 -3v92h-25v-92h25zM159 371h-108v-92h108v92zM225 279v92h-25v-92h25z" />
    <glyph glyph-name="semicolon" unicode=";" horiz-adv-x="276" 
d="M159 371h-108v-92h108v92zM225 279v92h-25v-92h25zM159 89h-108v-92h108v92zM225 -95v184h-25v-184h25z" />
    <glyph glyph-name="less" unicode="&#x3c;" horiz-adv-x="261" 
d="M204 537l-156 -193v-33l156 193v33zM204 43v197l-99 96l-57 -68v-71z" />
    <glyph glyph-name="equal" unicode="=" horiz-adv-x="440" 
d="M297 455h-215v-62h215v62zM353 393v62h-25v-62h25zM297 301h-215v-61h215v61zM353 240v61h-25v-61h25z" />
    <glyph glyph-name="greater" unicode="&#x3e;" horiz-adv-x="261" 
d="M52 520v-196l99 -97l57 68v72zM51 30l156 192v33l-156 -193v-32z" />
    <glyph glyph-name="question" unicode="?" horiz-adv-x="640" 
d="M318 756q-69 0 -123 -18.5t-91.5 -49.5t-57.5 -72t-20 -87h22q0 40 18 77t52.5 65.5t85 45.5t114.5 17q43 0 70 -6t44 -15v-511q47 7 83 31t60.5 59.5t37.5 79t13 89.5q0 54 -18.5 107t-56 95t-95.5 67.5t-138 25.5zM323 497h-180v-282h180v282zM364 215h25v282h-25v-282
zM323 174h-180v-174h180v174zM364 0h25v174h-25v-174z" />
    <glyph glyph-name="at" unicode="@" horiz-adv-x="598" 
d="M183 392q0 23 8 44t22.5 37t36.5 26t50 10q23 0 40.5 -8.5t30 -22.5t18.5 -32.5t6 -37.5q0 -22 -6.5 -44t-20.5 -39.5t-35 -28t-49 -10.5q-54 0 -77.5 31t-23.5 75zM58 409q0 45 17.5 88t50 76.5t78 54t102.5 20.5t103 -19.5t78 -51.5t49.5 -72.5t17.5 -83.5
q0 -20 -5 -44t-15.5 -44.5t-27.5 -33.5t-39 -13q-30 0 -39 21.5t-9 46.5v6l13 163h-19l-5 -65q-3 11 -11 23.5t-20 23t-31 17.5t-46 7q-33 0 -59 -11t-43.5 -30t-26.5 -44t-9 -52q0 -55 29.5 -91.5t91.5 -36.5q31 0 51 9t33.5 20.5t21 25t11.5 22.5q0 -30 13.5 -53.5
t49.5 -23.5q33 0 54.5 15.5t34 39t17.5 51t5 51.5q0 46 -18 90t-53 79.5t-84.5 57t-112.5 21.5q-62 0 -112 -22.5t-84.5 -59t-53 -83t-18.5 -95.5t16.5 -96.5t49.5 -84.5t83.5 -59.5t117.5 -22.5q31 0 59 6t52 14t41.5 18t26.5 19q5 5 5 11q0 11 -11 11q-4 0 -7 -3
q-22 -23 -67.5 -39t-96.5 -16q-62 0 -108.5 21t-78 54.5t-47 77.5t-15.5 89z" />
    <glyph glyph-name="A" unicode="A" horiz-adv-x="665" 
d="M282 688l194 -688h179l-194 688h-179zM16 0h32l110 373h135l106 -373h32l-114 398h-152l76 290h-30z" />
    <glyph glyph-name="B" unicode="B" horiz-adv-x="665" 
d="M437 0q45 0 82.5 16t64.5 42.5t42.5 63t15.5 77.5q0 46 -15 80t-37.5 57t-49.5 35.5t-53 15.5q26 6 49.5 16t41.5 26t28.5 41t10.5 60q0 43 -16.5 73t-45 49t-64.5 27.5t-74 8.5h-376v-688h179v663h197q32 0 63 -7.5t56 -23.5t40.5 -41t15.5 -61q0 -35 -15.5 -60
t-40.5 -41t-56 -24t-63 -8h-156v-397h176zM616 199q0 -36 -14.5 -67.5t-39 -55t-57 -37t-67.5 -13.5h-151v346h151q35 0 67.5 -11t57 -33t39 -54t14.5 -75z" />
    <glyph glyph-name="C" unicode="C" horiz-adv-x="732" 
d="M38 342q0 -55 15 -105.5t42 -92t64 -74t82 -52.5v615q23 13 61 25.5t85 12.5q92 0 159 -37.5t110 -89.5l21 15q-27 31 -55.5 56.5t-63 44t-76.5 28.5t-95 10q-73 0 -136.5 -28t-111 -76.5t-74.5 -113.5t-27 -138zM310 362h-25v-361q18 -6 43 -11.5t64 -5.5
q54 0 99.5 12.5t82 34t65 49.5t48.5 57l-22 16q-22 -30 -49.5 -55.5t-62 -45t-75 -30.5t-86.5 -11q-33 0 -50.5 3.5t-31.5 8.5v339z" />
    <glyph glyph-name="D" unicode="D" horiz-adv-x="655" 
d="M301 26h-16v380h-26v-406h32q20 0 54 5.5t72 20t76 39.5t69 64t50.5 94.5t19.5 128.5q0 83 -29 146t-78.5 105.5t-115 63.5t-139.5 21h-231v-688h179v663h41q75 0 138.5 -19.5t110 -58.5t72.5 -97.5t26 -135.5q0 -67 -17 -116.5t-44.5 -85.5t-61 -60t-67.5 -38.5
t-64.5 -20t-50.5 -5.5z" />
    <glyph glyph-name="E" unicode="E" horiz-adv-x="537" 
d="M220 0v663h282v25h-461v-688h179zM502 398h-241v-398h241v26h-215v347h215v25z" />
    <glyph glyph-name="F" unicode="F" horiz-adv-x="542" 
d="M225 0v663h282v25h-461v-688h179zM507 398h-241v-398h26v373h215v25z" />
    <glyph glyph-name="G" unicode="G" horiz-adv-x="774" 
d="M34 355q0 -123 54.5 -206.5t153.5 -130.5v616q20 13 55 25.5t89 12.5q48 0 89 -11.5t76 -31t63 -46.5t51 -58l20 16q-24 34 -53 62.5t-66 50t-82 33t-98 11.5q-75 0 -139.5 -29t-111.5 -77t-74 -109.5t-27 -127.5zM317 362h-28v-361q14 -6 38.5 -11t54.5 -5q88 0 156 30
t114.5 81.5t71 120.5t24.5 145h-324v-25h295q0 -55 -21.5 -113t-63.5 -105t-105.5 -77t-146.5 -30q-22 0 -38 3.5t-27 8.5v338z" />
    <glyph glyph-name="H" unicode="H" horiz-adv-x="675" 
d="M220 688h-179v-688h179v688zM261 0h26v373h171v-373h179v688h-179v-290h-197v-398z" />
    <glyph glyph-name="I" unicode="I" horiz-adv-x="327" 
d="M220 688h-179v-688h179v688zM261 0h26v688h-26v-688z" />
    <glyph glyph-name="J" unicode="J" horiz-adv-x="606" 
d="M393 33q50 16 84.5 46.5t55.5 65.5t30 73.5t9 72.5v397h-179v-655zM327 373v-345q-16 -5 -34 -8.5t-38 -3.5q-36 0 -69.5 10t-62 28.5t-49 44.5t-29.5 58h-27q10 -35 30.5 -65t50 -51.5t69 -33.5t88.5 -12q22 0 46 3t50 11v364h-25z" />
    <glyph glyph-name="K" unicode="K" horiz-adv-x="686" 
d="M220 688h-179v-688h179v688zM261 0h27v374l209 -374h169l-226 399l180 289h-185l-174 -294v-394z" />
    <glyph glyph-name="L" unicode="L" horiz-adv-x="558" 
d="M220 0v688h-179v-688h179zM287 374h-26v-374h266v26h-240v348z" />
    <glyph glyph-name="M" unicode="M" horiz-adv-x="947" 
d="M44 0l161 631l87 -320h25l-103 377h-21l-175 -688h26zM569 688l-76 -216l-59 216h-179l196 -688h177l-124 430l73 206l176 -636h181l-196 688h-169z" />
    <glyph glyph-name="N" unicode="N" horiz-adv-x="655" 
d="M612 0l-387 688h-178v-688h26v624l354 -624h185zM612 87v601h-25v-506l-123 224h-30z" />
    <glyph glyph-name="O" unicode="O" horiz-adv-x="793" 
d="M334 17v354h-33v-374q18 -5 45 -9t57 -4q71 0 134.5 27t112 74.5t77.5 113.5t29 143q0 75 -28.5 140t-77 113t-113 75.5t-137.5 27.5q-76 0 -141 -28.5t-114 -77t-76.5 -113t-27.5 -137.5q0 -55 16 -106.5t44.5 -94.5t69 -76t89.5 -53v626q22 12 57.5 23t82.5 11
q68 0 127.5 -27t104.5 -72.5t71 -105t26 -125.5q0 -71 -27 -131t-72.5 -105t-104.5 -70t-122 -25q-38 0 -69 6z" />
    <glyph glyph-name="P" unicode="P" horiz-adv-x="630" 
d="M42 688v-688h179v663h176q40 0 74.5 -8t60 -25t40 -42.5t14.5 -61.5q0 -34 -14.5 -58t-40 -39.5t-60 -23t-74.5 -7.5h-135v-398h26v373h109q41 0 79.5 7.5t68 26t48 47.5t18.5 72q0 45 -18.5 76.5t-48 50.5t-68 27t-79.5 8h-355z" />
    <glyph glyph-name="Q" unicode="Q" horiz-adv-x="798" 
d="M333 -133v123q31 -6 70 -6q71 0 134.5 27t112 74.5t77.5 113.5t29 143q0 75 -28.5 140t-77 113t-113 75.5t-137.5 27.5q-76 0 -141 -28.5t-114 -77t-76.5 -113t-27.5 -137.5q0 -55 16 -106.5t44.5 -94.5t69 -76t89.5 -53v626q22 12 57.5 23t82.5 11q68 0 127.5 -27
t104.5 -72.5t71 -105t26 -125.5q0 -71 -27 -131t-72.5 -105t-104.5 -70t-122 -25q-39 0 -69 6v389h-33v-539h32z" />
    <glyph glyph-name="R" unicode="R" horiz-adv-x="737" 
d="M63 688v-688h180v663h188q40 0 76 -8.5t63.5 -26.5t43.5 -45t16 -64q0 -36 -14.5 -63.5t-37.5 -46t-53 -27.5t-62 -9h-179v-373h30v346l191 -346h187l-193 350q30 7 58 19t50 31.5t35 48.5t13 70q0 44 -16.5 76t-47 52.5t-71.5 30.5t-89 10h-368z" />
    <glyph glyph-name="S" unicode="S" horiz-adv-x="618" 
d="M171 339l253 -294q-24 -14 -58 -24t-85 -10q-77 0 -136.5 30.5t-90.5 76.5l-21 -15q36 -52 95 -84.5t153 -32.5q43 0 73.5 5.5t52 13.5t36.5 17.5t26 17.5l-263 299h-35zM512 312l-303 341q24 6 54.5 10t66.5 4q29 0 60 -5.5t60 -16t54.5 -27t43.5 -37.5l21 15
q-18 24 -45 41.5t-59 30t-66.5 18.5t-68.5 6q-126 0 -192.5 -31t-66.5 -74q0 -30 16.5 -52t32.5 -39l378 -433q29 22 45.5 50.5t16.5 74.5q0 34 -10.5 64t-37.5 60z" />
    <glyph glyph-name="T" unicode="T" horiz-adv-x="552" 
d="M343 0v688h-312v-25h133v-663h179zM522 688h-138v-304h26v279h112v25z" />
    <glyph glyph-name="U" unicode="U" horiz-adv-x="659" 
d="M297 26v662h-26v-688h75q49 0 96.5 11.5t86 34t62 56.5t23.5 80v506h-25v-498q0 -41 -21 -71.5t-56.5 -51.5t-82 -31t-97.5 -10h-35zM230 688h-179v-505q0 -39 16 -70t41.5 -54t58 -37t63.5 -18v684z" />
    <glyph glyph-name="V" unicode="V" horiz-adv-x="645" 
d="M611 688l-178 -635l-83 323h-25l96 -376h21l195 688h-26zM10 688l195 -688h174l-195 688h-174z" />
    <glyph glyph-name="W" unicode="W" horiz-adv-x="957" 
d="M915 688l-161 -631l-80 315h-26l96 -374h22l175 690h-26zM389 0l75 219l60 -219h179l-196 688h-177l123 -427l-71 -206l-177 633h-181l196 -688h169z" />
    <glyph glyph-name="X" unicode="X" horiz-adv-x="622" 
d="M27 0h32l292 438l-146 250h-185l216 -366zM604 688h-33l-295 -437l148 -251h184l-218 372z" />
    <glyph glyph-name="Y" unicode="Y" horiz-adv-x="583" 
d="M562 688h-175l-358 -691h177zM199 411l144 277h-31l-113 -218l-108 218h-31z" />
    <glyph glyph-name="Z" unicode="Z" horiz-adv-x="599" 
d="M550 688h-513v-28h311l-311 -660h183zM476 374h-31l-174 -374h302v26h-256z" />
    <glyph glyph-name="bracketleft" unicode="[" horiz-adv-x="271" 
d="M207 701v26h-146v-804l149 -1v26l-71 1v752h68z" />
    <glyph glyph-name="backslash" unicode="\" horiz-adv-x="317" 
d="M60 717h-35l245 -717h36z" />
    <glyph glyph-name="bracketright" unicode="]" horiz-adv-x="271" 
d="M215 -77v804h-145v-26h67v-753l-70 -1v-25z" />
    <glyph glyph-name="asciicircum" unicode="^" horiz-adv-x="599" 
d="M566 406l-192 268h-27l189 -268h30zM80 406h195l94 176l-64 92h-72z" />
    <glyph glyph-name="underscore" unicode="_" horiz-adv-x="372" 
d="M381 -31h-381v-26h381v26z" />
    <glyph glyph-name="grave" unicode="`" horiz-adv-x="266" 
d="M197 581l13 16l-127 116l-33 -37z" />
    <glyph glyph-name="a" unicode="a" horiz-adv-x="430" 
d="M216 560l-200 -560h22l58 160h201l58 -160h62zM195 438l91 -255h-182z" />
    <glyph glyph-name="b" unicode="b" horiz-adv-x="368" 
d="M37 538v-538h144q36 0 67.5 8t54 26t35 45t12.5 64q0 34 -8.5 58t-23 40t-32.5 25.5t-37 14.5q16 3 32.5 11.5t30 23.5t21.5 36.5t8 48.5q0 67 -43.5 102t-113.5 35h-147zM98 23v242h83q54 0 84 -27.5t30 -94.5t-29.5 -93.5t-84.5 -26.5h-83zM98 288v227h83
q51 0 79.5 -27.5t28.5 -86.5q0 -58 -28.5 -85.5t-79.5 -27.5h-83z" />
    <glyph glyph-name="c" unicode="c" horiz-adv-x="408" 
d="M85 268q0 53 10.5 98.5t30.5 78t49 50.5t65 18q51 0 84.5 -18t58.5 -45l14 13q-12 16 -26.5 31t-33.5 25.5t-44 17.5t-59 7q-46 0 -85.5 -21.5t-68.5 -59.5t-45.5 -88t-16.5 -107t16.5 -106.5t45.5 -87t68.5 -59t85.5 -21.5q34 0 58.5 5.5t43.5 15.5t34 22.5t28 27.5
l-15 15q-26 -25 -59 -40t-84 -15q-36 0 -65 17.5t-49 50t-30.5 77t-10.5 98.5z" />
    <glyph glyph-name="d" unicode="d" horiz-adv-x="405" 
d="M388 268q0 53 -13 102t-37.5 86.5t-61 59.5t-86.5 22h-153v-538h153q49 0 86 22t61.5 59t37.5 85.5t13 101.5zM98 23v492h86q37 0 63.5 -21t44 -56t26.5 -79.5t9 -90.5t-9 -90t-27 -78t-44.5 -55.5t-62.5 -21.5h-86z" />
    <glyph glyph-name="e" unicode="e" horiz-adv-x="270" 
d="M244 515v23h-207v-538h207v23h-146v245h146v23h-146v224h146z" />
    <glyph glyph-name="f" unicode="f" horiz-adv-x="267" 
d="M244 515v23h-207v-538h61v268h146v23h-146v224h146z" />
    <glyph glyph-name="g" unicode="g" horiz-adv-x="433" 
d="M85 267q0 118 43 182t114 64q53 0 84.5 -19t57.5 -44l14 14q-14 16 -28.5 31t-32.5 25.5t-42.5 17t-57.5 6.5q-45 0 -84.5 -21t-69.5 -58t-47.5 -87.5t-17.5 -110.5t17.5 -110.5t47.5 -86t69 -56t85 -20.5q36 0 62.5 7.5t46 19t32 23t21.5 21.5v165h-61v-177
q-16 -12 -37 -20t-59 -8q-37 0 -66.5 17.5t-49.5 50t-30.5 77t-10.5 97.5z" />
    <glyph glyph-name="h" unicode="h" horiz-adv-x="370" 
d="M99 296v242h-61v-538h61v273h173v-273h62v538h-62v-242h-173z" />
    <glyph glyph-name="i" unicode="i" horiz-adv-x="131" 
d="M35 0h61v538h-61v-538z" />
    <glyph glyph-name="j" unicode="j" horiz-adv-x="212" 
d="M181 538h-61v-411q0 -34 -2.5 -55t-8 -31.5t-14 -14t-20.5 -3.5h-53v-23h54q18 0 37 4t34 17t24.5 38t9.5 68v411z" />
    <glyph glyph-name="k" unicode="k" horiz-adv-x="325" 
d="M99 281v257h-61v-538h61v248l9 12l140 -260h69l-170 315l159 223h-23z" />
    <glyph glyph-name="l" unicode="l" horiz-adv-x="276" 
d="M100 23v515h-61v-538h216v23h-155z" />
    <glyph glyph-name="m" unicode="m" horiz-adv-x="513" 
d="M37 538v-538h22v466l180 -476l176 469v-459h61v538h-54l-163 -430l-161 430h-61z" />
    <glyph glyph-name="n" unicode="n" horiz-adv-x="408" 
d="M37 538v-538h22v437l313 -456v557h-23v-414l-282 414h-30z" />
    <glyph glyph-name="o" unicode="o" 
d="M457 266q0 47 -13.5 97t-41 90t-68.5 65.5t-96 25.5t-96.5 -25.5t-69 -65.5t-41 -90t-13.5 -97t13.5 -95.5t41 -87.5t68.5 -64t97 -25q55 0 96 25t68.5 64t41 87.5t13.5 95.5zM85 266q0 60 12 106.5t32.5 77.5t48 47t60.5 16t60.5 -16t48 -47t32 -77t11.5 -107
q0 -62 -11.5 -107.5t-32 -75.5t-48.5 -44t-60 -14q-33 0 -60.5 14t-48 44t-32.5 75.5t-12 107.5z" />
    <glyph glyph-name="p" unicode="p" horiz-adv-x="313" 
d="M296 402q0 31 -10.5 56t-26.5 42.5t-37.5 27.5t-43.5 10h-141v-538h61v268h80q22 0 43.5 9.5t37.5 27.5t26.5 42t10.5 55zM240 402q0 -55 -18.5 -83t-60.5 -28h-63v224h63q42 0 60.5 -31.5t18.5 -81.5z" />
    <glyph glyph-name="q" unicode="q" 
d="M238 513q33 0 60.5 -16t48 -47t32 -77t11.5 -107q0 -56 -9 -98t-26 -71t-39.5 -46t-48.5 -23v53h-61v-53q-55 15 -88 72.5t-33 165.5q0 60 12 106.5t32.5 77.5t48 47t60.5 16zM267 -70v66q47 7 82.5 33t59 63.5t36 82.5t12.5 91q0 47 -13.5 97t-41 90t-68.5 65.5
t-96 25.5t-96.5 -25.5t-69 -65.5t-41 -90t-13.5 -97q0 -44 12 -89t35 -82.5t58.5 -64.5t82.5 -34v-66h61z" />
    <glyph glyph-name="r" unicode="r" horiz-adv-x="337" 
d="M98 0v515h72q44 0 67 -31.5t23 -84.5q0 -49 -23.5 -81t-66.5 -32h-59l132 -286h70l-130 267q25 5 49 14t43 24.5t30 38t11 55.5q0 65 -38.5 102t-105.5 37h-135v-538h61z" />
    <glyph glyph-name="s" unicode="s" horiz-adv-x="288" 
d="M239 452l19 11q-13 32 -38 55t-72 23q-25 0 -47 -9.5t-38.5 -26t-26 -39.5t-9.5 -50q0 -57 34 -98.5t87 -74.5q37 -24 54 -51.5t17 -58.5q0 -52 -17.5 -79t-65.5 -27q-33 0 -57.5 24t-34.5 66l-21 -8q9 -47 40.5 -80t84.5 -33q59 0 93 37t34 104q0 31 -5.5 57t-20.5 49.5
t-39.5 45.5t-61.5 45q-35 20 -50 42.5t-15 58.5q0 32 18.5 53.5t51.5 21.5q31 0 53.5 -14t32.5 -44z" />
    <glyph glyph-name="t" unicode="t" horiz-adv-x="248" 
d="M232 538h-215v-23h77v-515h62v515h76v23z" />
    <glyph glyph-name="u" unicode="u" horiz-adv-x="322" 
d="M99 133v405h-62v-405q0 -37 10 -63.5t27.5 -43t41.5 -24t51 -7.5q56 0 88 30.5t32 111.5v401h-23v-405q0 -32 -5.5 -52.5t-16.5 -32.5t-25.5 -17t-33.5 -5q-18 0 -33.5 5t-26.5 17t-17.5 32.5t-6.5 52.5z" />
    <glyph glyph-name="v" unicode="v" horiz-adv-x="305" 
d="M79 538h-63l139 -547l138 547h-24l-95 -378z" />
    <glyph glyph-name="w" unicode="w" horiz-adv-x="482" 
d="M250 538h-62l46 -184l-58 -198l-96 382h-64l139 -547l92 317l80 -317l147 547h-25l-103 -378zM16 538l139 -547z" />
    <glyph glyph-name="x" unicode="x" horiz-adv-x="396" 
d="M78 538h-62l162 -279l-161 -259h26l147 238l138 -238h61l-166 286l157 252h-26l-143 -231z" />
    <glyph glyph-name="y" unicode="y" horiz-adv-x="331" 
d="M77 538h-66l122 -266v-272h63v272l126 266h-25l-112 -236z" />
    <glyph glyph-name="z" unicode="z" horiz-adv-x="371" 
d="M346 538h-310v-23h232l-246 -515h324v23h-245z" />
    <glyph glyph-name="braceleft" unicode="{" horiz-adv-x="245" 
d="M134 436v192q0 17 2 33.5t10 28.5t22 19.5t38 7.5v34q-36 0 -60 -8.5t-38.5 -24t-20 -38.5t-5.5 -52v-192q0 -31 -13.5 -49.5t-31.5 -40.5q16 -17 30.5 -38.5t14.5 -51.5v-207q0 -29 4 -51t17 -36.5t37.5 -22.5t65.5 -8v33q-25 0 -39 6t-21.5 17t-9.5 27t-2 35v207
q0 30 -14 52.5t-27 37.5q8 9 15.5 17.5t13 18.5t9 23.5t3.5 30.5z" />
    <glyph glyph-name="bar" unicode="|" horiz-adv-x="128" 
d="M86 717h-36v-784h36v784z" />
    <glyph glyph-name="braceright" unicode="}" horiz-adv-x="245" 
d="M50 717q24 0 38 -7.5t22 -19.5t10 -28.5t2 -33.5v-192q0 -17 3.5 -30.5t9 -23.5t13 -18.5t15.5 -17.5q-13 -15 -27 -37.5t-14 -52.5v-207q0 -19 -2 -35t-9.5 -27t-21.5 -17t-39 -6v-33q41 0 65.5 8t37.5 22.5t17 36.5t4 51v207q0 30 14.5 51.5t30.5 38.5q-18 22 -31.5 41
t-13.5 49v192q0 59 -26 91t-98 32v-34z" />
    <glyph glyph-name="asciitilde" unicode="~" horiz-adv-x="495" 
d="M40 406l12 -10q15 20 36 36.5t50 23.5q28 -39 65.5 -56t83.5 -17q42 0 71.5 6.5t50.5 17.5t33.5 24t18.5 27l-15 7q-14 -20 -31.5 -33t-44.5 -21q-31 39 -73.5 57.5t-85.5 18.5q-68 0 -111 -25t-60 -56z" />
    <glyph glyph-name="quotesinglbase" unicode="&#x201a;" horiz-adv-x="271" 
d="M168 159h-108v-92h108v92zM224 -26v185h-25v-185h25z" />
    <glyph glyph-name="florin" unicode="&#x192;" horiz-adv-x="538" 
d="M486 442h-442v-442h442v442z" />
    <glyph glyph-name="quotedblbase" unicode="&#x201e;" horiz-adv-x="481" 
d="M168 159h-108v-92h108v92zM224 -26v185h-25v-185h25zM383 159h-108v-92h108v92zM439 -26v185h-25v-185h25z" />
    <glyph glyph-name="ellipsis" unicode="&#x2026;" horiz-adv-x="1187" 
d="M215 89h-107v-92h107v92zM282 -3v92h-26v-92h26zM614 89h-107v-92h107v92zM681 -3v92h-26v-92h26zM1014 89h-108v-92h108v92zM1080 -3v92h-25v-92h25z" />
    <glyph glyph-name="dagger" unicode="&#x2020;" horiz-adv-x="245" 
d="M138 727h-30v-133h-62v-25h62v-383h30v383h62v25h-62v133z" />
    <glyph glyph-name="daggerdbl" unicode="&#x2021;" horiz-adv-x="245" 
d="M46 409h62v-310h30v310h62v24h-62v131h62v25h-62v138h-30v-138h-62v-25h62v-131h-62v-24z" />
    <glyph glyph-name="circumflex" unicode="&#x2c6;" horiz-adv-x="399" 
d="M366 598l-123 99h-18l121 -99h20zM50 598h125l63 62l-43 37h-47z" />
    <glyph glyph-name="perthousand" unicode="&#x2030;" horiz-adv-x="1167" 
d="M666 691h-36l-512 -691h36zM200 375v163h-21v-181q5 -2 15.5 -3.5t23.5 -1.5q43 0 75.5 15.5t54.5 40t33 55.5t11 60q0 32 -12 63t-34 55t-54 38.5t-71 14.5t-70 -14.5t-53.5 -38.5t-35 -55t-12.5 -63q0 -54 29 -95.5t75 -60.5v288q9 5 23 12t44 7q33 0 60.5 -13
t47.5 -34t31.5 -48t11.5 -56q0 -28 -9.5 -55t-29 -48t-48 -34t-67.5 -13q-10 0 -18 2zM542 20v163h-21v-180q5 -2 15.5 -3.5t23.5 -1.5q43 0 75.5 15.5t54.5 40t33 55t11 60.5q0 32 -12 63t-34 54.5t-54 38.5t-71 15t-70 -15t-53.5 -38.5t-35 -54.5t-12.5 -63
q0 -54 29 -95.5t75 -61.5v289q9 5 23.5 11.5t43.5 6.5q33 0 60.5 -12.5t47.5 -33.5t31.5 -48t11.5 -56q0 -28 -9.5 -55t-29 -48t-48 -34.5t-67.5 -13.5q-10 0 -18 2zM929 20v163h-21v-180q5 -2 15.5 -3.5t23.5 -1.5q43 0 75.5 15.5t54.5 40t33 55t11 60.5q0 32 -12 63
t-34 54.5t-54 38.5t-71 15t-70 -15t-53.5 -38.5t-35 -54.5t-12.5 -63q0 -54 29 -95.5t75 -61.5v289q9 5 23.5 11.5t43.5 6.5q33 0 60.5 -12.5t47.5 -33.5t31.5 -48t11.5 -56q0 -28 -9.5 -55t-29 -48t-48 -34.5t-67.5 -13.5q-10 0 -18 2z" />
    <glyph glyph-name="Scaron" unicode="&#x160;" horiz-adv-x="618" 
d="M469 831h-17l-100 -99h18zM365 769l-63 62h-125l98 -99h53zM171 339l253 -294q-24 -14 -58 -24t-85 -10q-77 0 -136.5 30.5t-90.5 76.5l-21 -15q36 -52 95 -84.5t153 -32.5q43 0 73.5 5.5t52 13.5t36.5 17.5t26 17.5l-263 299h-35zM512 312l-303 341q24 6 54.5 10t66.5 4
q29 0 60 -5.5t60 -16t54.5 -27t43.5 -37.5l21 15q-18 24 -45 41.5t-59 30t-66.5 18.5t-68.5 6q-126 0 -192.5 -31t-66.5 -74q0 -30 16.5 -52t32.5 -39l378 -433q29 22 45.5 50.5t16.5 74.5q0 34 -10.5 64t-37.5 60z" />
    <glyph glyph-name="guilsinglleft" unicode="&#x2039;" horiz-adv-x="276" 
d="M220 519l-155 -192v-26l155 193v25zM220 33v195l-98 98l-57 -68v-71z" />
    <glyph glyph-name="OE" unicode="&#x152;" horiz-adv-x="1227" 
d="M1186 397h-241v-397h241v26h-215v346h215v25zM725 688v-202q-20 47 -53.5 86t-76 67.5t-92 43.5t-103.5 15q-76 0 -141 -28.5t-114 -77t-76.5 -113t-27.5 -137.5q0 -55 16 -106.5t44.5 -94.5t69 -76t89.5 -53v626q22 12 57.5 23t82.5 11q68 0 127.5 -27t104.5 -72.5
t71 -105t26 -125.5q0 -71 -27 -131t-72.5 -105t-104.5 -70t-122 -25q-39 0 -69 6v354h-33v-374q18 -5 45 -9t57 -4q52 0 101 14.5t91 42.5t75 66.5t55 86.5v-194h179v663h282v25h-461z" />
    <glyph glyph-name="quoteleft" unicode="&#x2018;" horiz-adv-x="271" 
d="M112 528h107v93h-107v-93zM55 713v-185h26v185h-26z" />
    <glyph glyph-name="quoteright" unicode="&#x2019;" horiz-adv-x="276" 
d="M173 707h-107v-93h107v93zM229 522v185h-25v-185h25z" />
    <glyph glyph-name="quotedblleft" unicode="&#x201c;" horiz-adv-x="481" 
d="M327 528h107v93h-107v-93zM270 713v-185h26v185h-26zM112 528h107v93h-107v-93zM55 713v-185h26v185h-26z" />
    <glyph glyph-name="quotedblright" unicode="&#x201d;" horiz-adv-x="481" 
d="M168 707h-108v-93h108v93zM224 522v185h-25v-185h25zM383 707h-108v-93h108v93zM439 522v185h-25v-185h25z" />
    <glyph glyph-name="bullet" unicode="&#x2022;" horiz-adv-x="332" 
d="M296 275q0 26 -10.5 49.5t-27 40.5t-40 27t-49.5 10q-27 0 -50 -10t-40 -27t-27 -40.5t-10 -49.5q0 -27 10 -49.5t27 -39.5t40 -27.5t50 -10.5q26 0 49.5 10.5t40 27.5t27 39.5t10.5 49.5z" />
    <glyph glyph-name="endash" unicode="&#x2013;" horiz-adv-x="450" 
d="M338 373h-287v-62h287v62zM394 311v62h-25v-62h25z" />
    <glyph glyph-name="emdash" unicode="&#x2014;" horiz-adv-x="614" 
d="M512 373h-461v-62h461v62zM568 311v62h-25v-62h25z" />
    <glyph glyph-name="tilde" unicode="&#x2dc;" horiz-adv-x="394" 
d="M50 609l9 -6q11 14 26.5 25.5t36.5 16.5q20 -28 47 -40t59 -12q59 0 87.5 17.5t37.5 36.5l-9 5q-11 -14 -23 -24t-32 -15q-23 29 -53 42.5t-62 13.5q-49 0 -79.5 -18.5t-44.5 -41.5z" />
    <glyph glyph-name="trademark" unicode="&#x2122;" horiz-adv-x="501" 
d="M217 670h-154v-18h69v-200h16v200h69v18zM272 671l-48 -217h17l34 162l66 -174l67 179l32 -167h18l-45 217l-72 -188z" />
    <glyph glyph-name="scaron" unicode="&#x161;" horiz-adv-x="288" 
d="M289 696h-18l-99 -99h17zM184 634l-62 62h-125l99 -99h51zM239 452l19 11q-13 32 -38 55t-72 23q-25 0 -47 -9.5t-38.5 -26t-26 -39.5t-9.5 -50q0 -57 34 -98.5t87 -74.5q37 -24 54 -51.5t17 -58.5q0 -52 -17.5 -79t-65.5 -27q-33 0 -57.5 24t-34.5 66l-21 -8
q9 -47 40.5 -80t84.5 -33q59 0 93 37t34 104q0 31 -5.5 57t-20.5 49.5t-39.5 45.5t-61.5 45q-35 20 -50 42.5t-15 58.5q0 32 18.5 53.5t51.5 21.5q31 0 53.5 -14t32.5 -44z" />
    <glyph glyph-name="guilsinglright" unicode="&#x203a;" horiz-adv-x="266" 
d="M59 39l156 192v26l-156 -192v-26zM59 525v-195l99 -98l57 68v71z" />
    <glyph glyph-name="oe" unicode="&#x153;" horiz-adv-x="624" 
d="M85 266q0 65 13 112t34 76.5t48.5 44t57.5 14.5q32 0 55.5 -13.5t42 -36t30.5 -52t19 -61.5v-163q-5 -29 -15.5 -58t-28 -52t-43.5 -37.5t-60 -14.5q-33 0 -60.5 14t-48 44t-32.5 75.5t-12 107.5zM592 538h-207v-62q-22 24 -57.5 46t-89.5 22q-51 0 -92 -23t-69 -62
t-43.5 -89.5t-15.5 -103.5q0 -47 14 -95.5t41 -87.5t68 -64t97 -25q52 0 90 21.5t57 46.5v-62h207v23h-145v244h145v24h-145v223h145v24z" />
    <glyph glyph-name="Ydieresis" unicode="&#x178;" horiz-adv-x="583" 
d="M208 801h-86v-74h86v74zM261 727v74h-20v-74h20zM441 801h-86v-74h86v74zM495 727v74h-21v-74h21zM562 688h-175l-358 -691h177zM199 411l144 277h-31l-113 -218l-108 218h-31z" />
    <glyph glyph-name="exclamdown" unicode="&#xa1;" horiz-adv-x="378" 
d="M134 -128h179v473h-179v-473zM93 345h-25v-473h25v473zM134 393h179v167h-179v-167zM93 560h-25v-167h25v167z" />
    <glyph glyph-name="cent" unicode="&#xa2;" horiz-adv-x="424" 
d="M47 360q0 -36 9 -63t23.5 -48t34 -35.5t41.5 -24.5v312q10 5 29.5 10.5t40.5 5.5q44 0 78.5 -20t52.5 -46l15 8q-19 31 -54.5 50.5t-71.5 22.5v61h-24v-59q-34 -1 -65.5 -14.5t-55.5 -36.5t-38.5 -54.5t-14.5 -68.5zM194 369h-19v-187q18 -5 46 -7v-58h24v59
q45 5 77.5 27t53.5 54l-14 10q-19 -32 -54.5 -54t-82.5 -22q-9 0 -16 1t-15 3v174z" />
    <glyph glyph-name="sterling" unicode="&#xa3;" horiz-adv-x="593" 
d="M220 0v617q27 17 65.5 29t91.5 12q51 0 91.5 -9.5t79.5 -23.5l9 24q-40 14 -80.5 24.5t-99.5 10.5q-86 0 -149 -30.5t-104.5 -82.5t-62 -120t-20.5 -143v-308h179zM502 398h-241v-398h241v26h-215v347h215v25z" />
    <glyph glyph-name="yen" unicode="&#xa5;" horiz-adv-x="561" 
d="M41 236h133v-236h176v236h133v24h-133v43h133v26h-133l181 359h-169l-188 -359h-133v-26h133v-42h-133v-25zM174 411l144 277h-30l-114 -218l-107 218h-31z" />
    <glyph glyph-name="brokenbar" unicode="&#xa6;" horiz-adv-x="136" 
d="M91 335h-36v-335h36v335zM55 446h36v327h-36v-327z" />
    <glyph glyph-name="section" unicode="&#xa7;" horiz-adv-x="505" 
d="M253 -114q83 0 125 37.5t42 104.5q0 37 -25 75t-64 67q35 0 62 13t46 33.5t28.5 47t9.5 53.5q0 42 -23.5 80.5t-56 72t-69 62t-62.5 51.5q-34 31 -48.5 54t-14.5 47q0 28 13 40.5t34 12.5q36 0 66 -13t50 -38l20 15q-20 27 -55 44.5t-87 17.5q-78 0 -119 -37t-41 -98
q0 -24 7.5 -44.5t20 -38.5t29 -33.5t33.5 -30.5q-32 0 -58.5 -11.5t-46.5 -32t-31 -48t-11 -57.5q0 -45 23.5 -83.5t56 -71.5t69 -60.5t62.5 -49.5q34 -31 48.5 -55t14.5 -50t-14 -38t-38 -12q-39 0 -67.5 15.5t-46.5 38.5l-24 -15q20 -30 54.5 -47.5t87.5 -17.5zM237 429
q26 -20 48.5 -38.5t40 -39.5t28 -46t10.5 -58q0 -27 -17 -40.5t-45 -13.5l-35 27q-17 13 -38.5 28.5t-41.5 36t-33.5 47.5t-13.5 64q0 33 20 47t42 14z" />
    <glyph glyph-name="dieresis" unicode="&#xa8;" 
d="M140 801h-86v-74h86v74zM194 727v74h-21v-74h21zM374 801h-86v-74h86v74zM427 727v74h-20v-74h20z" />
    <glyph glyph-name="copyright" unicode="&#xa9;" horiz-adv-x="589" 
d="M196 356q0 18 7 37.5t21 33.5t32.5 23.5t42.5 9.5q39 0 61 -14t36 -29v24q-14 14 -35.5 26.5t-61.5 12.5q-29 0 -52 -10.5t-38.5 -28t-24.5 -40t-9 -45.5q0 -24 9 -45.5t24.5 -38.5t38.5 -28t52 -11q39 0 61.5 12.5t35.5 25.5v32q-17 -20 -38.5 -34.5t-58.5 -14.5
q-24 0 -42.5 8.5t-32 23t-21 33t-7.5 37.5zM560 361q0 53 -20.5 101t-56.5 84t-83.5 56.5t-100.5 20.5q-54 0 -101 -20.5t-83 -56.5t-56.5 -83.5t-20.5 -101.5t20.5 -101t56.5 -83t83 -56.5t101 -20.5q53 0 100.5 20.5t83.5 56.5t56.5 83t20.5 101zM299 121q-49 0 -93 19
t-77 51.5t-52 76.5t-19 93t19 93.5t52 77t77 51.5t93 19t93 -19t77 -51.5t52 -76.5t19 -94q0 -49 -19 -93t-52 -76.5t-77 -51.5t-93 -19z" />
    <glyph glyph-name="ordfeminine" unicode="&#xaa;" horiz-adv-x="348" 
d="M318 179h-288v-26h288v26zM173 657l-141 -397h15l42 114h141l42 -114h43zM159 571l64 -181h-129z" />
    <glyph glyph-name="guillemotleft" unicode="&#xab;" horiz-adv-x="517" 
d="M220 519l-155 -192v-26l155 193v25zM220 33v195l-98 98l-57 -68v-71zM435 519l-155 -192v-26l155 193v25zM435 33v195l-98 98l-57 -68v-71z" />
    <glyph glyph-name="logicalnot" unicode="&#xac;" horiz-adv-x="619" 
d="M394 688v-688h179v688h-179zM17 0h31l166 373h114v-373h25v398h-127l130 290h-28z" />
    <glyph glyph-name="registered" unicode="&#xae;" horiz-adv-x="416" 
d="M41 599q0 -31 10.5 -61.5t32 -54t54.5 -38.5t77 -15q43 0 76 15t55 38.5t32.5 54t10.5 61.5q0 32 -10.5 62.5t-32 54.5t-54.5 39t-77 15t-77 -15t-54.5 -39t-32 -54.5t-10.5 -62.5zM54 599q0 30 10.5 58t30.5 50.5t50 36t70 13.5t70 -13.5t50 -36t30.5 -50.5t10.5 -58
q0 -29 -10 -57t-30 -50t-50 -35.5t-71 -13.5q-40 0 -70 13.5t-50 35.5t-30.5 50t-10.5 57zM286 647q0 27 -15 41.5t-33 14.5h-86v-203h14v94h14l88 -94h19l-88 94h39q17 0 32.5 13.5t15.5 39.5zM270 647q0 -16 -9.5 -27.5t-22.5 -11.5h-72v80h71q16 0 24.5 -12t8.5 -29z" />
    <glyph glyph-name="macron" unicode="&#xaf;" horiz-adv-x="353" 
d="M312 609h-256v-26h256v26z" />
    <glyph glyph-name="degree" unicode="&#xb0;" horiz-adv-x="212" 
d="M189 617q0 35 -24 59t-59 24t-58.5 -24t-23.5 -59t24 -58.5t58 -23.5q35 0 59 23.5t24 58.5zM43 617q0 27 18.5 45.5t44.5 18.5q27 0 45.5 -18.5t18.5 -45.5t-18.5 -45t-45.5 -18t-45 18t-18 45z" />
    <glyph glyph-name="twosuperior" unicode="&#xb2;" horiz-adv-x="304" 
d="M253 426v10h-82l58 129l-10 4l-66 -143h100zM69 654q11 15 32 26t47 11q27 0 39 -5l-125 -260h74l110 242q-14 12 -37 23t-61 11q-30 0 -54 -12.5t-34 -27.5z" />
    <glyph glyph-name="threesuperior" unicode="&#xb3;" horiz-adv-x="374" 
d="M213 693h-101v-10h83l-73 -116h12zM304 693h-72l-75 -126h43q47 0 70.5 -24.5t23.5 -53.5q0 -37 -29 -57t-82 -20q-75 0 -97 78l-9 -2q9 -41 36 -64t70 -23q57 0 89 22t32 66q0 36 -21.5 57t-51.5 27z" />
    <glyph glyph-name="acute" unicode="&#xb4;" horiz-adv-x="266" 
d="M215 691l-36 41l-124 -124l15 -15z" />
    <glyph glyph-name="paragraph" unicode="&#xb6;" horiz-adv-x="630" 
d="M326 373v-424h25v739h-130q-77 0 -123.5 -40.5t-46.5 -117.5q0 -80 46.5 -118.5t123.5 -38.5h105zM571 688h-179v-739h179v739z" />
    <glyph glyph-name="periodcentered" unicode="&#xb7;" horiz-adv-x="281" 
d="M226 328q0 36 -25.5 61.5t-61.5 25.5t-61.5 -25.5t-25.5 -61.5t25.5 -61.5t61.5 -25.5t61.5 25.5t25.5 61.5z" />
    <glyph glyph-name="periodcentered" unicode="&#x2219;" horiz-adv-x="281" 
d="M226 328q0 36 -25.5 61.5t-61.5 25.5t-61.5 -25.5t-25.5 -61.5t25.5 -61.5t61.5 -25.5t61.5 25.5t25.5 61.5z" />
    <glyph glyph-name="cedilla" unicode="&#xb8;" horiz-adv-x="234" 
d="M129 0h-21l-9 -44q18 -8 32.5 -19.5t14.5 -28.5q0 -20 -9.5 -28t-25.5 -8q-20 0 -50 10l-7 -24q33 -16 64 -17q31 0 50 16.5t19 44.5q0 27 -20 43t-43 24z" />
    <glyph glyph-name="onesuperior" unicode="&#xb9;" horiz-adv-x="374" 
d="M159 723v-276h71v276h-71zM103 666l32 37v-37h10v57h-9l-45 -57h12z" />
    <glyph glyph-name="ordmasculine" unicode="&#xba;" horiz-adv-x="371" 
d="M334 179h-291v-26h291v26zM336 451q0 33 -9.5 67t-28.5 62t-48 46t-67 18q-39 0 -67.5 -18t-47.5 -46t-28 -62.5t-9 -66.5q0 -33 9 -67t28 -61t47.5 -44.5t67.5 -17.5q38 0 67 17.5t48 44.5t28.5 61t9.5 67zM77 451q0 84 30 128t76 44t76 -44t30 -128q0 -87 -30 -127.5
t-76 -40.5t-76 40.5t-30 127.5z" />
    <glyph glyph-name="guillemotright" unicode="&#xbb;" horiz-adv-x="517" 
d="M59 39l156 192v26l-156 -192v-26zM59 525v-195l99 -98l57 68v71zM269 39l156 192v26l-156 -192v-26zM269 525v-195l99 -98l57 68v71z" />
    <glyph glyph-name="onequarter" unicode="&#xbc;" horiz-adv-x="374" 
d="M159 723v-276h71v276h-71zM103 666l32 37v-37h10v57h-9l-45 -57h12zM328 384h-282v-42h282v42zM257 148h61v11h-61v115h-72v-274h72v148zM169 0v159h-82l64 115h-12l-70 -126h90v-148h10z" />
    <glyph glyph-name="onehalf" unicode="&#xbd;" horiz-adv-x="374" 
d="M159 723v-276h71v276h-71zM103 666l32 37v-37h10v57h-9l-45 -57h12zM278 0v10h-82l58 129l-10 4l-67 -143h101zM93 228q11 15 32 26t48 11t39 -5l-125 -260h74l109 242q-14 12 -36.5 23t-60.5 11q-30 0 -54.5 -12.5t-33.5 -27.5zM328 384h-282v-42h282v42z" />
    <glyph glyph-name="threequarters" unicode="&#xbe;" horiz-adv-x="374" 
d="M328 360h-282v-42h282v42zM257 148h61v11h-61v115h-72v-274h72v148zM169 0v159h-82l64 115h-12l-70 -126h90v-148h10zM213 693h-101v-10h83l-73 -116h12zM304 693h-72l-75 -126h43q47 0 70.5 -24.5t23.5 -53.5q0 -37 -29 -57t-82 -20q-75 0 -97 78l-9 -2q9 -41 36 -64
t70 -23q57 0 89 22t32 66q0 36 -21.5 57t-51.5 27z" />
    <glyph glyph-name="questiondown" unicode="&#xbf;" horiz-adv-x="640" 
d="M330 -172q69 0 123 18.5t92 49t58 71.5t20 87h-23q0 -40 -18 -76.5t-52 -65.5t-85 -46t-115 -17q-43 0 -70 6.5t-44 15.5v511q-47 -7 -83 -31t-60.5 -59.5t-37 -79t-12.5 -89.5q0 -54 18 -107t55.5 -95t95.5 -67.5t138 -25.5zM326 87h179v282h-179v-282zM285 369h-26
v-282h26v282zM326 410h179v174h-179v-174zM285 584h-26v-174h26v174z" />
    <glyph glyph-name="Agrave" unicode="&#xc0;" horiz-adv-x="665" 
d="M333 743l11 14l-102 92l-26 -29zM282 688l194 -688h179l-194 688h-179zM16 0h32l110 373h135l106 -373h32l-114 398h-152l76 290h-30z" />
    <glyph glyph-name="Aacute" unicode="&#xc1;" horiz-adv-x="660" 
d="M421 809l-29 33l-99 -100l11 -12zM282 688l194 -688h179l-194 688h-179zM16 0h32l110 373h135l106 -373h32l-114 398h-152l76 290h-30z" />
    <glyph glyph-name="Acircumflex" unicode="&#xc2;" horiz-adv-x="660" 
d="M282 688l194 -688h179l-194 688h-179zM16 0h32l110 373h135l106 -373h32l-114 398h-152l76 290h-30zM470 731l-100 99h-18l100 -99h18zM177 731h125l63 63l-36 36h-54z" />
    <glyph glyph-name="Atilde" unicode="&#xc3;" horiz-adv-x="665" 
d="M179 751l9 -7q11 14 26.5 25.5t36.5 16.5q20 -28 47 -40t59 -12q59 0 87.5 17.5t37.5 36.5l-9 6q-11 -14 -23 -24t-32 -15q-23 29 -53 42t-62 13q-49 0 -79.5 -18t-44.5 -41zM282 688l194 -688h179l-194 688h-179zM16 0h32l110 373h135l106 -373h32l-114 398h-152l76 290
h-30z" />
    <glyph glyph-name="Adieresis" unicode="&#xc4;" horiz-adv-x="665" 
d="M230 821h-86v-73h86v73zM284 748v73h-21v-73h21zM464 821h-86v-73h86v73zM517 748v73h-20v-73h20zM282 688l194 -688h179l-194 688h-179zM16 0h32l110 373h135l106 -373h32l-114 398h-152l76 290h-30z" />
    <glyph glyph-name="Aring" unicode="&#xc5;" horiz-adv-x="665" 
d="M414 784q0 35 -24 59t-59 24t-59 -24t-24 -59t24 -59t59 -24t59 24t24 59zM267 784q0 27 18.5 45.5t45.5 18.5t45 -18.5t18 -45.5t-18.5 -45t-44.5 -18q-27 0 -45.5 18t-18.5 45zM282 688l194 -688h179l-194 688h-179zM16 0h32l110 373h135l106 -373h32l-114 398h-152
l76 290h-30z" />
    <glyph glyph-name="AE" unicode="&#xc6;" horiz-adv-x="899" 
d="M19 0h29l166 374h114v-374h25v399h-128l128 289h-27zM573 0v663h282v25h-461v-688h179zM855 397h-241v-397h241v26h-215v346h215v25z" />
    <glyph glyph-name="Ccedilla" unicode="&#xc7;" horiz-adv-x="732" 
d="M285 1q17 -5 39 -10.5t56 -6.5v-143q33 0 57 16.5t24 60.5q0 29 -16.5 44.5t-29.5 22.5q49 3 91 16t75.5 34t60.5 48t45 54l-22 16q-22 -30 -49.5 -55.5t-62 -45t-75 -30.5t-86.5 -11q-33 0 -50.5 3.5t-31.5 8.5v339h-25v-361zM38 342q0 -55 15 -105.5t42 -92t64 -74
t82 -52.5v615q23 13 61 25.5t85 12.5q92 0 159 -37.5t110 -89.5l21 15q-27 31 -55.5 56.5t-63 44t-76.5 28.5t-95 10q-73 0 -136.5 -28t-111 -76.5t-74.5 -113.5t-27 -138z" />
    <glyph glyph-name="Egrave" unicode="&#xc8;" horiz-adv-x="537" 
d="M290 743l11 14l-102 92l-26 -29zM220 0v663h282v25h-461v-688h179zM502 398h-241v-398h241v26h-215v347h215v25z" />
    <glyph glyph-name="Eacute" unicode="&#xc9;" horiz-adv-x="537" 
d="M388 809l-29 33l-99 -100l11 -12zM220 0v663h282v25h-461v-688h179zM502 398h-241v-398h241v26h-215v347h215v25z" />
    <glyph glyph-name="Ecircumflex" unicode="&#xca;" horiz-adv-x="558" 
d="M409 731l-101 99h-17l99 -99h19zM116 731h125l62 63l-36 36h-53zM220 0v663h282v25h-461v-688h179zM502 398h-241v-398h241v26h-215v347h215v25z" />
    <glyph glyph-name="Edieresis" unicode="&#xcb;" horiz-adv-x="537" 
d="M174 821h-86v-73h86v73zM227 748v73h-20v-73h20zM408 821h-86v-73h86v73zM461 748v73h-21v-73h21zM220 0v663h282v25h-461v-688h179zM502 398h-241v-398h241v26h-215v347h215v25z" />
    <glyph glyph-name="Igrave" unicode="&#xcc;" horiz-adv-x="327" 
d="M161 743l11 14l-102 92l-26 -29zM220 688h-179v-688h179v688zM261 0h26v688h-26v-688z" />
    <glyph glyph-name="Iacute" unicode="&#xcd;" horiz-adv-x="327" 
d="M273 809l-28 33l-100 -100l12 -12zM220 688h-179v-688h179v688zM261 0h26v688h-26v-688z" />
    <glyph glyph-name="Icircumflex" unicode="&#xce;" horiz-adv-x="327" 
d="M220 688h-179v-688h179v688zM261 0h26v688h-26v-688zM311 731l-100 99h-17l99 -99h18zM18 731h125l63 63l-36 36h-53z" />
    <glyph glyph-name="Idieresis" unicode="&#xcf;" horiz-adv-x="327" 
d="M65 821h-87v-73h87v73zM118 748v73h-21v-73h21zM298 821h-86v-73h86v73zM351 748v73h-20v-73h20zM220 688h-179v-688h179v688zM261 0h26v688h-26v-688z" />
    <glyph glyph-name="Eth" unicode="&#xd0;" horiz-adv-x="655" 
d="M39 379h-52v-26h52v-353h179v353h127v26h-127v284h41q75 0 138.5 -19.5t110 -58.5t72.5 -97.5t26 -135.5q0 -67 -17 -116.5t-44.5 -85.5t-61 -60t-67.5 -38.5t-64 -20t-51 -5.5h-16v226h-26v-252h32q20 0 54 5.5t72 20t76 39.5t69 64t50.5 94.5t19.5 128.5q0 83 -29 146
t-78.5 105.5t-115 63.5t-139.5 21h-231v-309z" />
    <glyph glyph-name="Ntilde" unicode="&#xd1;" horiz-adv-x="655" 
d="M187 751l10 -7q11 14 26.5 25.5t35.5 16.5q20 -28 47 -40t60 -12q59 0 87 17.5t37 36.5l-9 6q-11 -14 -23 -24t-32 -15q-23 29 -53 42t-62 13q-49 0 -79.5 -18t-44.5 -41zM612 0l-387 688h-178v-688h26v624l354 -624h185zM612 87v601h-25v-506l-123 224h-30z" />
    <glyph glyph-name="Ograve" unicode="&#xd2;" horiz-adv-x="793" 
d="M402 743l12 14l-103 92l-25 -29zM334 17v354h-33v-374q18 -5 45 -9t57 -4q71 0 134.5 27t112 74.5t77.5 113.5t29 143q0 75 -28.5 140t-77 113t-113 75.5t-137.5 27.5q-76 0 -141 -28.5t-114 -77t-76.5 -113t-27.5 -137.5q0 -55 16 -106.5t44.5 -94.5t69 -76t89.5 -53
v626q22 12 57.5 23t82.5 11q68 0 127.5 -27t104.5 -72.5t71 -105t26 -125.5q0 -71 -27 -131t-72.5 -105t-104.5 -70t-122 -25q-38 0 -69 6z" />
    <glyph glyph-name="Oacute" unicode="&#xd3;" horiz-adv-x="793" 
d="M509 809l-29 33l-99 -100l11 -12zM334 17v354h-33v-374q18 -5 45 -9t57 -4q71 0 134.5 27t112 74.5t77.5 113.5t29 143q0 75 -28.5 140t-77 113t-113 75.5t-137.5 27.5q-76 0 -141 -28.5t-114 -77t-76.5 -113t-27.5 -137.5q0 -55 16 -106.5t44.5 -94.5t69 -76t89.5 -53
v626q22 12 57.5 23t82.5 11q68 0 127.5 -27t104.5 -72.5t71 -105t26 -125.5q0 -71 -27 -131t-72.5 -105t-104.5 -70t-122 -25q-38 0 -69 6z" />
    <glyph glyph-name="Ocircumflex" unicode="&#xd4;" horiz-adv-x="793" 
d="M334 17v354h-33v-374q18 -5 45 -9t57 -4q71 0 134.5 27t112 74.5t77.5 113.5t29 143q0 75 -28.5 140t-77 113t-113 75.5t-137.5 27.5q-76 0 -141 -28.5t-114 -77t-76.5 -113t-27.5 -137.5q0 -55 16 -106.5t44.5 -94.5t69 -76t89.5 -53v626q22 12 57.5 23t82.5 11
q68 0 127.5 -27t104.5 -72.5t71 -105t26 -125.5q0 -71 -27 -131t-72.5 -105t-104.5 -70t-122 -25q-38 0 -69 6zM538 731l-101 99h-17l99 -99h19zM245 731h125l62 63l-36 36h-53z" />
    <glyph glyph-name="Otilde" unicode="&#xd5;" horiz-adv-x="793" 
d="M255 751l9 -7q11 14 26.5 25.5t36.5 16.5q20 -28 46.5 -40t59.5 -12q59 0 87.5 17.5t37.5 36.5l-9 6q-11 -14 -23 -24t-32 -15q-23 29 -53 42t-62 13q-49 0 -79.5 -18t-44.5 -41zM334 17v354h-33v-374q18 -5 45 -9t57 -4q71 0 134.5 27t112 74.5t77.5 113.5t29 143
q0 75 -28.5 140t-77 113t-113 75.5t-137.5 27.5q-76 0 -141 -28.5t-114 -77t-76.5 -113t-27.5 -137.5q0 -55 16 -106.5t44.5 -94.5t69 -76t89.5 -53v626q22 12 57.5 23t82.5 11q68 0 127.5 -27t104.5 -72.5t71 -105t26 -125.5q0 -71 -27 -131t-72.5 -105t-104.5 -70
t-122 -25q-38 0 -69 6z" />
    <glyph glyph-name="Odieresis" unicode="&#xd6;" horiz-adv-x="793" 
d="M302 821h-86v-73h86v73zM355 748v73h-20v-73h20zM536 821h-86v-73h86v73zM589 748v73h-21v-73h21zM334 17v354h-33v-374q18 -5 45 -9t57 -4q71 0 134.5 27t112 74.5t77.5 113.5t29 143q0 75 -28.5 140t-77 113t-113 75.5t-137.5 27.5q-76 0 -141 -28.5t-114 -77
t-76.5 -113t-27.5 -137.5q0 -55 16 -106.5t44.5 -94.5t69 -76t89.5 -53v626q22 12 57.5 23t82.5 11q68 0 127.5 -27t104.5 -72.5t71 -105t26 -125.5q0 -71 -27 -131t-72.5 -105t-104.5 -70t-122 -25q-38 0 -69 6z" />
    <glyph glyph-name="multiply" unicode="&#xd7;" horiz-adv-x="369" 
d="M69 423l-34 -23l126 -187l-128 -189l34 -24l119 177l120 -177l35 22l-129 192l126 187l-35 22l-117 -175z" />
    <glyph glyph-name="Oslash" unicode="&#xd8;" horiz-adv-x="793" 
d="M563 627l-229 -543v287h-33v-365l-30 -69l26 -11l28 65q16 -3 36 -5t42 -2q71 0 134.5 27t112 74.5t77.5 113.5t29 143q0 94 -43.5 171.5t-114.5 124.5l37 87l-26 9l-35 -82q-39 23 -83.5 34.5t-90.5 11.5q-76 0 -141 -28.5t-114 -77t-76.5 -113t-27.5 -137.5
q0 -55 16 -106.5t44.5 -94.5t69 -76t89.5 -53v626q22 12 57.5 23t82.5 11q45 0 86 -11.5t77 -33.5zM403 11q-20 0 -36 1.5t-31 4.5l251 594q65 -46 103.5 -117t38.5 -152q0 -71 -27 -131t-72.5 -105t-105 -70t-121.5 -25z" />
    <glyph glyph-name="Ugrave" unicode="&#xd9;" horiz-adv-x="659" 
d="M347 743l11 14l-102 92l-26 -29zM297 26v662h-26v-688h75q49 0 96.5 11.5t86 34t62 56.5t23.5 80v506h-25v-498q0 -41 -21 -71.5t-56.5 -51.5t-82 -31t-97.5 -10h-35zM230 688h-179v-505q0 -39 16 -70t41.5 -54t58 -37t63.5 -18v684z" />
    <glyph glyph-name="Uacute" unicode="&#xda;" horiz-adv-x="659" 
d="M454 809l-29 33l-99 -100l11 -12zM297 26v662h-26v-688h75q49 0 96.5 11.5t86 34t62 56.5t23.5 80v506h-25v-498q0 -41 -21 -71.5t-56.5 -51.5t-82 -31t-97.5 -10h-35zM230 688h-179v-505q0 -39 16 -70t41.5 -54t58 -37t63.5 -18v684z" />
    <glyph glyph-name="Ucircumflex" unicode="&#xdb;" horiz-adv-x="659" 
d="M297 26v662h-26v-688h75q49 0 96.5 11.5t86 34t62 56.5t23.5 80v506h-25v-498q0 -41 -21 -71.5t-56.5 -51.5t-82 -31t-97.5 -10h-35zM230 688h-179v-505q0 -39 16 -70t41.5 -54t58 -37t63.5 -18v684zM499 731l-101 99h-17l99 -99h19zM206 731h125l62 63l-36 36h-53z" />
    <glyph glyph-name="Udieresis" unicode="&#xdc;" horiz-adv-x="659" 
d="M230 821h-86v-73h86v73zM284 748v73h-21v-73h21zM464 821h-86v-73h86v73zM517 748v73h-20v-73h20zM297 26v662h-26v-688h75q49 0 96.5 11.5t86 34t62 56.5t23.5 80v506h-25v-498q0 -41 -21 -71.5t-56.5 -51.5t-82 -31t-97.5 -10h-35zM230 688h-179v-505q0 -39 16 -70
t41.5 -54t58 -37t63.5 -18v684z" />
    <glyph glyph-name="Yacute" unicode="&#xdd;" horiz-adv-x="583" 
d="M562 688h-175l-358 -691h177zM199 411l144 277h-31l-113 -218l-108 218h-31zM388 809l-29 33l-99 -100l11 -12z" />
    <glyph glyph-name="Thorn" unicode="&#xde;" horiz-adv-x="630" 
d="M42 688v-688h179v503h176q40 0 74.5 -8t60 -24.5t40 -42.5t14.5 -61q0 -34 -14.5 -58t-40 -40t-60 -23t-74.5 -7h-135v-239h26v213h109q41 0 79.5 7.5t68 26t48 48t18.5 72.5q0 45 -18.5 76t-48 50t-68 27t-79.5 8h-176v160h-179z" />
    <glyph glyph-name="germandbls" unicode="&#xdf;" horiz-adv-x="433" 
d="M68 330v-330h64v426q0 53 25.5 73.5t64.5 20.5q59 0 89.5 -27t30.5 -63q0 -22 -12 -43t-47 -40q-25 -13 -43.5 -24t-29.5 -21t-17 -21.5t-6 -25.5q0 -27 18 -40.5t53 -28.5q94 -38 94 -91q0 -70 -68 -69h-89v-26h96q20 0 40.5 4.5t37 15.5t27 29.5t10.5 44.5
q0 46 -27 78.5t-71 50.5q-39 17 -55 26.5t-16 24.5t15 26.5t46 27.5q39 19 55.5 46t16.5 57q0 20 -9.5 40.5t-28 35.5t-46 24.5t-64.5 9.5q-31 0 -58.5 -8t-49 -22.5t-34 -36.5t-12.5 -51v-72h-50v-21h50z" />
    <glyph glyph-name="agrave" unicode="&#xe0;" horiz-adv-x="430" 
d="M223 585l14 16l-127 116l-33 -37zM216 560l-200 -560h22l58 160h201l58 -160h62zM195 438l91 -255h-182z" />
    <glyph glyph-name="aacute" unicode="&#xe1;" horiz-adv-x="430" 
d="M342 691l-36 41l-124 -124l15 -15zM216 560l-200 -560h22l58 160h201l58 -160h62zM195 438l91 -255h-182z" />
    <glyph glyph-name="acircumflex" unicode="&#xe2;" horiz-adv-x="430" 
d="M325 614l-88 72h-14l88 -72h14zM98 614h89l45 45l-30 27h-33zM216 560l-200 -560h22l58 160h201l58 -160h62zM195 438l91 -255h-182z" />
    <glyph glyph-name="atilde" unicode="&#xe3;" horiz-adv-x="430" 
d="M60 609l10 -6q11 14 26.5 25.5t35.5 16.5q20 -28 47 -40t60 -12q59 0 87 17.5t38 36.5l-10 5q-11 -14 -23 -24t-32 -15q-23 29 -53 42.5t-62 13.5q-49 0 -79.5 -18.5t-44.5 -41.5zM216 560l-200 -560h22l58 160h201l58 -160h62zM195 438l91 -255h-182z" />
    <glyph glyph-name="adieresis" unicode="&#xe4;" horiz-adv-x="430" 
d="M186 634q0 14 -9 23.5t-23 9.5t-23.5 -9.5t-9.5 -23.5t9 -23.5t24 -9.5q14 0 23 9.5t9 23.5zM304 634q0 14 -9 23.5t-24 9.5q-14 0 -23 -9.5t-9 -23.5t9 -23.5t23 -9.5t23.5 9.5t9.5 23.5zM216 560l-200 -560h22l58 160h201l58 -160h62zM195 438l91 -255h-182z" />
    <glyph glyph-name="aring" unicode="&#xe5;" horiz-adv-x="430" 
d="M298 664q0 35 -24 58.5t-59 23.5t-59 -24t-24 -58q0 -35 24 -59t59 -24t59 24t24 59zM152 664q0 27 18 45t45 18t45.5 -18.5t18.5 -44.5q0 -27 -18.5 -45.5t-45.5 -18.5t-45 18.5t-18 45.5zM216 560l-200 -560h22l58 160h201l58 -160h62zM195 438l91 -255h-182z" />
    <glyph glyph-name="ae" unicode="&#xe6;" horiz-adv-x="503" 
d="M464 538h-207l-245 -538h30l71 160l143 -1v-159h208v23h-145l2 244h143v24h-145v223h145v24zM256 183h-131l131 282v-282z" />
    <glyph glyph-name="ccedilla" unicode="&#xe7;" horiz-adv-x="408" 
d="M18 268q0 -55 15.5 -104t43 -86t65 -59.5t82.5 -24.5l-7 -38q18 -8 32.5 -19.5t14.5 -28.5q0 -20 -9.5 -28t-26.5 -8q-20 0 -49 10l-7 -24q33 -16 64 -17q31 0 50 16.5t19 44.5q0 27 -20 43t-43 24l4 25q31 1 54 7t40 16t31.5 22t26.5 26l-15 15q-26 -25 -59 -40t-84 -15
q-36 0 -65 17.5t-49 50t-30.5 77t-10.5 98.5q0 53 10.5 98.5t30.5 78t49 50.5t65 18q51 0 84.5 -18t58.5 -45l14 13q-12 16 -26.5 31t-33.5 25.5t-44 17.5t-59 7q-46 0 -85.5 -21.5t-68.5 -59.5t-45.5 -88.5t-16.5 -106.5z" />
    <glyph glyph-name="egrave" unicode="&#xe8;" horiz-adv-x="270" 
d="M154 585l13 16l-127 116l-33 -37zM244 515v23h-207v-538h207v23h-146v245h146v23h-146v224h146z" />
    <glyph glyph-name="eacute" unicode="&#xe9;" horiz-adv-x="270" 
d="M270 691l-36 41l-123 -124l14 -15zM244 515v23h-207v-538h207v23h-146v245h146v23h-146v224h146z" />
    <glyph glyph-name="ecircumflex" unicode="&#xea;" horiz-adv-x="270" 
d="M253 614l-88 72h-13l88 -72h13zM27 614h89l45 45l-31 27h-33zM244 515v23h-207v-538h207v23h-146v245h146v23h-146v224h146z" />
    <glyph glyph-name="edieresis" unicode="&#xeb;" horiz-adv-x="270" 
d="M112 634q0 14 -9.5 23.5t-23.5 9.5t-23.5 -9.5t-9.5 -23.5t9.5 -23.5t23.5 -9.5t23.5 9.5t9.5 23.5zM229 634q0 14 -9 23.5t-23 9.5t-23.5 -9.5t-9.5 -23.5t9 -23.5t24 -9.5q14 0 23 9.5t9 23.5zM244 515v23h-207v-538h207v23h-146v245h146v23h-146v224h146z" />
    <glyph glyph-name="igrave" unicode="&#xec;" horiz-adv-x="131" 
d="M95 0v538h-58v-538h58zM70 585l13 16l-127 116l-33 -37z" />
    <glyph glyph-name="iacute" unicode="&#xed;" horiz-adv-x="131" 
d="M95 0v538h-58v-538h58zM215 691l-36 41l-124 -124l15 -15z" />
    <glyph glyph-name="icircumflex" unicode="&#xee;" horiz-adv-x="131" 
d="M95 0v538h-58v-538h58zM187 614l-88 72h-13l88 -72h13zM-39 614h89l45 45l-30 27h-33z" />
    <glyph glyph-name="idieresis" unicode="&#xef;" horiz-adv-x="132" 
d="M37 0h58v538h-58v-538zM41 634q0 14 -9 23.5t-24 9.5q-14 0 -23.5 -9.5t-9.5 -23.5t9.5 -23.5t23.5 -9.5t23.5 9.5t9.5 23.5zM159 634q0 14 -9.5 23.5t-23.5 9.5t-23.5 -9.5t-9.5 -23.5t9.5 -23.5t23.5 -9.5t23.5 9.5t9.5 23.5z" />
    <glyph glyph-name="eth" unicode="&#xf0;" 
d="M85 266q0 60 12 106.5t32.5 77.5t48 47t60.5 16t60.5 -16t48 -47t32 -77t11.5 -107q0 -62 -11.5 -107.5t-32 -75.5t-48.5 -44t-60 -14q-33 0 -60.5 14t-48 44t-32.5 75.5t-12 107.5zM346 510q-23 16 -49.5 25t-58.5 9q-55 0 -96.5 -25.5t-69 -65.5t-41 -90t-13.5 -97
t13.5 -95.5t41 -87.5t68.5 -64t97 -25q55 0 96 25t68.5 64t41 87.5t13.5 95.5q0 137 -41.5 242t-111.5 180l75 58l-33 27l-72 -56q-20 17 -42 30.5t-44 21.5l-29 -36q40 -16 79 -45l-72 -56l33 -27l70 55q20 -25 42 -63.5t35 -86.5z" />
    <glyph glyph-name="ntilde" unicode="&#xf1;" horiz-adv-x="408" 
d="M51 609l9 -6q11 14 26.5 25.5t36.5 16.5q20 -28 47 -40t59 -12q59 0 87.5 17.5t37.5 36.5l-9 5q-11 -14 -23 -24t-32 -15q-23 29 -53 42.5t-62 13.5q-49 0 -79.5 -18.5t-44.5 -41.5zM37 538v-538h22v437l313 -456v557h-23v-414l-282 414h-30z" />
    <glyph glyph-name="ograve" unicode="&#xf2;" 
d="M236 585l13 16l-127 116l-33 -37zM457 266q0 47 -13.5 97t-41 90t-68.5 65.5t-96 25.5t-96.5 -25.5t-69 -65.5t-41 -90t-13.5 -97t13.5 -95.5t41 -87.5t68.5 -64t97 -25q55 0 96 25t68.5 64t41 87.5t13.5 95.5zM85 266q0 60 12 106.5t32.5 77.5t48 47t60.5 16t60.5 -16
t48 -47t32 -77t11.5 -107q0 -62 -11.5 -107.5t-32 -75.5t-48.5 -44t-60 -14q-33 0 -60.5 14t-48 44t-32.5 75.5t-12 107.5z" />
    <glyph glyph-name="oacute" unicode="&#xf3;" 
d="M360 691l-35 41l-124 -124l14 -15zM457 266q0 47 -13.5 97t-41 90t-68.5 65.5t-96 25.5t-96.5 -25.5t-69 -65.5t-41 -90t-13.5 -97t13.5 -95.5t41 -87.5t68.5 -64t97 -25q55 0 96 25t68.5 64t41 87.5t13.5 95.5zM85 266q0 60 12 106.5t32.5 77.5t48 47t60.5 16t60.5 -16
t48 -47t32 -77t11.5 -107q0 -62 -11.5 -107.5t-32 -75.5t-48.5 -44t-60 -14q-33 0 -60.5 14t-48 44t-32.5 75.5t-12 107.5z" />
    <glyph glyph-name="ocircumflex" unicode="&#xf4;" 
d="M341 614l-88 72h-13l88 -72h13zM115 614h89l45 45l-31 27h-33zM457 266q0 47 -13.5 97t-41 90t-68.5 65.5t-96 25.5t-96.5 -25.5t-69 -65.5t-41 -90t-13.5 -97t13.5 -95.5t41 -87.5t68.5 -64t97 -25q55 0 96 25t68.5 64t41 87.5t13.5 95.5zM85 266q0 60 12 106.5
t32.5 77.5t48 47t60.5 16t60.5 -16t48 -47t32 -77t11.5 -107q0 -62 -11.5 -107.5t-32 -75.5t-48.5 -44t-60 -14q-33 0 -60.5 14t-48 44t-32.5 75.5t-12 107.5z" />
    <glyph glyph-name="otilde" unicode="&#xf5;" 
d="M81 609l9 -6q11 14 26.5 25.5t36.5 16.5q20 -28 46.5 -40t59.5 -12q59 0 87.5 17.5t37.5 36.5l-9 5q-11 -14 -23 -24t-33 -15q-23 29 -52.5 42.5t-61.5 13.5q-49 0 -79.5 -18.5t-44.5 -41.5zM457 266q0 47 -13.5 97t-41 90t-68.5 65.5t-96 25.5t-96.5 -25.5t-69 -65.5
t-41 -90t-13.5 -97t13.5 -95.5t41 -87.5t68.5 -64t97 -25q55 0 96 25t68.5 64t41 87.5t13.5 95.5zM85 266q0 60 12 106.5t32.5 77.5t48 47t60.5 16t60.5 -16t48 -47t32 -77t11.5 -107q0 -62 -11.5 -107.5t-32 -75.5t-48.5 -44t-60 -14q-33 0 -60.5 14t-48 44t-32.5 75.5
t-12 107.5z" />
    <glyph glyph-name="odieresis" unicode="&#xf6;" 
d="M213 634q0 14 -9 23.5t-24 9.5q-14 0 -23.5 -9.5t-9.5 -23.5t9.5 -23.5t23.5 -9.5t23.5 9.5t9.5 23.5zM331 634q0 14 -9.5 23.5t-23.5 9.5t-23.5 -9.5t-9.5 -23.5t9.5 -23.5t23.5 -9.5t23.5 9.5t9.5 23.5zM457 266q0 47 -13.5 97t-41 90t-68.5 65.5t-96 25.5t-96.5 -25.5
t-69 -65.5t-41 -90t-13.5 -97t13.5 -95.5t41 -87.5t68.5 -64t97 -25q55 0 96 25t68.5 64t41 87.5t13.5 95.5zM85 266q0 60 12 106.5t32.5 77.5t48 47t60.5 16t60.5 -16t48 -47t32 -77t11.5 -107q0 -62 -11.5 -107.5t-32 -75.5t-48.5 -44t-60 -14q-33 0 -60.5 14t-48 44
t-32.5 75.5t-12 107.5z" />
    <glyph glyph-name="oslash" unicode="&#xf8;" 
d="M457 266q0 35 -7.5 71t-21 67.5t-33 58t-44.5 44.5l35 73l-27 11l-31 -69q-26 11 -47 16.5t-43 5.5q-55 0 -96.5 -25.5t-69 -65.5t-41 -90t-13.5 -97q0 -30 5.5 -60.5t16 -59.5t27 -54.5t37.5 -45.5l-37 -82l25 -12l36 76q23 -16 50 -25t60 -9q55 0 96 25t68.5 64
t41 87.5t13.5 95.5zM238 513q38 0 73 -25l-186 -399q-19 32 -29.5 75.5t-10.5 101.5q0 60 12 106.5t32.5 77.5t48 47t60.5 16zM238 25q-56 0 -94 38l190 405q26 -33 41 -82t15 -120q0 -62 -11.5 -107.5t-32 -75.5t-48 -44t-60.5 -14z" />
    <glyph glyph-name="ugrave" unicode="&#xf9;" horiz-adv-x="322" 
d="M170 585l13 16l-127 116l-32 -37zM99 133v405h-62v-405q0 -37 10 -63.5t27.5 -43t41.5 -24t51 -7.5q56 0 88 30.5t32 111.5v401h-23v-405q0 -32 -5.5 -52.5t-16.5 -32.5t-25.5 -17t-33.5 -5q-18 0 -33.5 5t-26.5 17t-17.5 32.5t-6.5 52.5z" />
    <glyph glyph-name="uacute" unicode="&#xfa;" horiz-adv-x="322" 
d="M303 691l-36 41l-124 -124l15 -15zM99 133v405h-62v-405q0 -37 10 -63.5t27.5 -43t41.5 -24t51 -7.5q56 0 88 30.5t32 111.5v401h-23v-405q0 -32 -5.5 -52.5t-16.5 -32.5t-25.5 -17t-33.5 -5q-18 0 -33.5 5t-26.5 17t-17.5 32.5t-6.5 52.5z" />
    <glyph glyph-name="ucircumflex" unicode="&#xfb;" horiz-adv-x="322" 
d="M273 614l-88 72h-13l88 -72h13zM47 614h89l45 45l-30 27h-33zM99 133v405h-62v-405q0 -37 10 -63.5t27.5 -43t41.5 -24t51 -7.5q56 0 88 30.5t32 111.5v401h-23v-405q0 -32 -5.5 -52.5t-16.5 -32.5t-25.5 -17t-33.5 -5q-18 0 -33.5 5t-26.5 17t-17.5 32.5t-6.5 52.5z" />
    <glyph glyph-name="udieresis" unicode="&#xfc;" horiz-adv-x="322" 
d="M141 634q0 14 -9 23.5t-23 9.5t-23.5 -9.5t-9.5 -23.5t9 -23.5t24 -9.5q14 0 23 9.5t9 23.5zM259 634q0 14 -9 23.5t-24 9.5q-14 0 -23 -9.5t-9 -23.5t9 -23.5t23 -9.5t23.5 9.5t9.5 23.5zM99 133v405h-62v-405q0 -37 10 -63.5t27.5 -43t41.5 -24t51 -7.5q56 0 88 30.5
t32 111.5v401h-23v-405q0 -32 -5.5 -52.5t-16.5 -32.5t-25.5 -17t-33.5 -5q-18 0 -33.5 5t-26.5 17t-17.5 32.5t-6.5 52.5z" />
    <glyph glyph-name="yacute" unicode="&#xfd;" horiz-adv-x="331" 
d="M77 538h-66l122 -266v-272h63v272l126 266h-25l-112 -236zM307 691l-36 41l-124 -124l15 -15z" />
    <glyph glyph-name="thorn" unicode="&#xfe;" horiz-adv-x="313" 
d="M296 292q0 31 -10.5 56t-26.5 42.5t-37.5 27t-43.5 9.5h-80v111h-61v-538h61v158h80q22 0 43.5 9t37.5 27t26.5 42.5t10.5 55.5zM240 292q0 -55 -18.5 -83.5t-60.5 -28.5h-63v224h63q42 0 60.5 -31t18.5 -81z" />
    <glyph glyph-name="ydieresis" unicode="&#xff;" horiz-adv-x="331" 
d="M150 634q0 14 -9.5 23.5t-23.5 9.5t-23.5 -9.5t-9.5 -23.5t9 -23.5t24 -9.5q14 0 23.5 9.5t9.5 23.5zM267 634q0 14 -9 23.5t-24 9.5q-14 0 -23 -9.5t-9 -23.5t9 -23.5t23 -9.5t23.5 9.5t9.5 23.5zM77 538h-66l122 -266v-272h63v272l126 266h-25l-112 -236z" />
    <glyph glyph-name="NUL" unicode="&#xe000;" horiz-adv-x="0" 
 />
    <glyph glyph-name="HT" unicode="&#xe001;" horiz-adv-x="0" 
 />
    <glyph glyph-name="nonmarkingreturn" unicode="&#xe002;" horiz-adv-x="0" 
 />
    <glyph glyph-name="minus" unicode="&#xe003;" horiz-adv-x="475" 
d="M417 292h-359v-42h359v42z" />
    <glyph glyph-name="notequal" unicode="&#xe004;" horiz-adv-x="271" 
d="M112 634q0 14 -9.5 23.5t-23.5 9.5t-23.5 -9.5t-9.5 -23.5t9.5 -23.5t23.5 -9.5t23.5 9.5t9.5 23.5zM229 634q0 14 -9 23.5t-23 9.5t-23.5 -9.5t-9.5 -23.5t9 -23.5t24 -9.5q14 0 23 9.5t9 23.5z" />
    <glyph glyph-name="integral" unicode="&#xe005;" horiz-adv-x="747" 
d="M676 614h-615v-614h615v614zM655 594v-574h-573v574h573z" />
    <glyph glyph-name="radical" unicode="&#xe006;" horiz-adv-x="664" 
d="M101 298l-65 -148q46 -36 81 -73.5t66 -81.5q20 48 49.5 102t65.5 108.5t77.5 107.5t85.5 99.5t90.5 84t92.5 60.5l-12 26q-78 -37 -145.5 -98t-123 -129.5t-98 -137t-69.5 -121.5q-13 56 -38 106.5t-57 94.5z" />
    <glyph glyph-name="approxequal" unicode="&#xe007;" horiz-adv-x="794" 
d="M334 267v129h127v-129h-127zM284 541v-95h-95q-47 0 -74 26.5t-27 69.5q0 46 28 72t72 26q48 0 72 -28.5t24 -70.5zM187 396h97v-129h-97q-31 0 -58 -10.5t-47.5 -30.5t-32 -47t-11.5 -60q0 -32 11 -58.5t30.5 -46t46.5 -30.5t58 -11q37 0 65.5 11.5t47 31.5t28 47
t9.5 58v96h127v-96q0 -31 9.5 -58t28.5 -47t46.5 -31.5t64.5 -11.5q32 0 58.5 11.5t46 31t31 46t11.5 57.5q0 33 -12 60t-32.5 47t-47.5 30.5t-58 10.5h-96v129h96q31 0 58 11.5t47.5 31.5t32.5 47t12 59t-11.5 58.5t-31 46t-46.5 30t-58 10.5q-37 0 -64.5 -11.5
t-46.5 -31.5t-28.5 -47t-9.5 -57v-97h-127v97q0 31 -9.5 57.5t-28 46.5t-47 31.5t-65.5 11.5q-31 0 -58 -11.5t-46.5 -31.5t-30.5 -46.5t-11 -55.5q0 -33 11 -60t31 -46.5t47 -31t60 -11.5zM707 542q0 -43 -30 -69.5t-72 -26.5h-94v95q0 42 23.5 70.5t71.5 28.5
q44 0 72.5 -26t28.5 -72zM511 123v94h94q42 0 72 -26t30 -69q0 -46 -28.5 -72t-72.5 -26q-48 0 -71.5 28.5t-23.5 70.5zM88 122q0 43 29.5 69t71.5 26h95v-94q0 -42 -23.5 -70.5t-72.5 -28.5q-44 0 -72 26t-28 72z" />
    <glyph glyph-name="nonbreakingspace" unicode="&#xe008;" horiz-adv-x="317" 
 />
    <glyph glyph-name="lozenge" unicode="&#xe009;" horiz-adv-x="417" 
d="M207 409l145 -146l-145 -145l-146 145zM15 263l192 -191l191 191l-191 192z" />
    <glyph glyph-name="apple" unicode="&#xe00a;" horiz-adv-x="808" 
d="M274 543q-41 0 -76 -13.5t-61 -39.5t-41 -64.5t-15 -87.5q0 -56 25 -118t62 -114t78 -85.5t73 -33.5q41 0 69 33q8 9 20 14.5t23 5.5q13 0 22.5 -6t15.5 -14q29 -34 75 -33q41 0 74.5 24.5t59 57.5t43 67.5t25.5 52.5q-17 5 -35.5 18t-33.5 31t-25 40.5t-10 47.5
q0 49 19.5 88.5t62.5 59.5q-4 12 -16 24.5t-29 22t-40 16t-49 6.5t-50 -6t-41 -19q-20 -15 -36 -21.5t-32 -6.5q-15 0 -27 7t-34 21q-17 11 -43.5 18t-52.5 7zM542 685q-22 0 -44.5 -13t-40.5 -32.5t-29.5 -44t-11.5 -47.5q0 -6 2.5 -12t11.5 -6q19 0 41 14.5t39.5 36.5
t29.5 47.5t12 47.5q0 9 -10 9z" />
    </font>
</defs>
</svg>
